<svg xmlns="http://www.w3.org/2000/svg" xmlns:xlink="http://www.w3.org/1999/xlink" xmlns:inkscape="http://www.inkscape.org/namespaces/inkscape" version="1.1" width="612" height="792" viewBox="0 0 612 792">
<defs>
<clipPath id="clip_0">
<path transform="matrix(1,0,0,-1,0,792)" d="M12-13H624V780H12Z"/>
</clipPath>
<clipPath id="clip_1">
<path transform="matrix(1,0,0,-1,0,792)" d="M12-13H624V780H12Z"/>
</clipPath>
<clipPath id="clip_2">
<path transform="matrix(1,0,0,-1,0,792)" d="M12-13H624V780H12Z"/>
</clipPath>
<clipPath id="clip_3">
<path transform="matrix(1,0,0,-1,0,792)" d="M12-13H624V780H12Z"/>
</clipPath>
<clipPath id="clip_4">
<path transform="matrix(1,0,0,-1,0,792)" d="M12-13H624V780H12Z"/>
</clipPath>
</defs>
<text xml:space="preserve" transform="matrix(.24238812 0 -0 .2376354 11.9906 201.83063)" font-size="70.300479" font-family="Spectral"><tspan y="-709.93588" x="979.78726 1035.5425 1071.2623 1113.5199 1136.8667 1172.2349 1194.246 1211.7578 1280.4485 1316.1682 1358.4259 1380.4369 1415.805">Daniel Mahler</tspan></text>
<text xml:space="preserve" transform="matrix(.24238812 0 -0 .2376354 11.9906 201.83063)" font-size="70.300479" font-family="Spectral"><tspan y="-709.93588" x="979.78726 1035.5425 1071.2623 1113.5199 1136.8667 1172.2349 1194.246 1211.7578 1280.4485 1316.1682 1358.4259 1380.4369 1415.805">Daniel Mahler</tspan></text>
<text xml:space="preserve" transform="matrix(.24238812 0 -0 .2376354 11.9906 201.83063)" font-size="70.300479" font-family="Spectral"><tspan y="-709.93588" x="1444.9193"> </tspan></text>
<text xml:space="preserve" transform="matrix(.24238812 0 -0 .2376354 11.9906 201.83063)" font-size="70.300479" font-family="Spectral"><tspan y="-709.93588" x="1444.9193"> </tspan></text>
<text xml:space="preserve" transform="matrix(.24 0 -0 .24 11.9906 201.83063)" font-size="42" font-family="Spectral"><tspan y="-625" x="1045.275 1072.4407 1092.8023 1110.8119 1125.5455 1135.9531 1163.3707 1179.9103 1203.2959 1227.5635 1245.5731 1276.9387 1289.9923 1309.934 1333.1936 1343.6012 1354.0088 1387.3064">East Brunswick, NJ</tspan></text>
<text xml:space="preserve" transform="matrix(.24 0 -0 .24 11.9906 201.83063)" font-size="42" font-family="Spectral"><tspan y="-625" x="1403.557"> </tspan></text>
<text xml:space="preserve" transform="matrix(.24 0 -0 .24 11.9906 201.83063)" font-size="42" font-family="Spectral"><tspan y="-562" x="261.851 285.14 305.531 329.786 342.82704 363.00804 375.25105 411.09803 431.489 455.74403 467.98704 488.16804 504.695 525.548">danielmahler34</tspan></text>
<text xml:space="preserve" transform="matrix(.24 0 -0 .24 11.9906 201.83063)" font-size="42" font-family="Spectral"><tspan y="-562" x="546.3033">@</tspan></text>
<text xml:space="preserve" transform="matrix(.24 0 -0 .24 11.9906 201.83063)" font-size="42" font-family="Spectral"><tspan y="-562" x="580.1779 602.9293 638.74276 659.10018 672.14956">gmail</tspan></text>
<text xml:space="preserve" transform="matrix(.24 0 -0 .24 11.9906 201.83063)" font-size="42" font-family="Spectral"><tspan y="-562" x="684.4259">.</tspan></text>
<text xml:space="preserve" transform="matrix(.24 0 -0 .24 11.9906 201.83063)" font-size="42" font-family="Spectral"><tspan y="-562" x="694.8425 714.8009 737.2793">com</tspan></text>
<text xml:space="preserve" transform="matrix(.24 0 -0 .24 11.9906 201.83063)" font-size="42" font-family="Spectral"><tspan y="-562" x="773.1323"> </tspan></text>
<text xml:space="preserve" transform="matrix(.24 0 -0 .24 11.9906 201.83063)" font-size="42" font-family="Spectral"><tspan y="-562" x="783.549 804.381">&#x2022; </tspan></text>
<text xml:space="preserve" transform="matrix(.24 0 -0 .24 11.9906 201.83063)" font-size="42" font-family="Spectral"><tspan y="-562" x="814.799 825.215 846.04708 866.8791 887.7111 898.12716 908.54318 929.3752 950.2072">(732) 429</tspan></text>
<text xml:space="preserve" transform="matrix(.24 0 -0 .24 11.9906 201.83063)" font-size="42" font-family="Spectral"><tspan y="-562" x="971.0491">-</tspan></text>
<text xml:space="preserve" transform="matrix(.24 0 -0 .24 11.9906 201.83063)" font-size="42" font-family="Spectral"><tspan y="-562" x="986.6741 1007.50607 1028.338 1049.17 1070.0021 1080.4181 1101.2501">8589 &#x2022; </tspan></text>
<text fill="#1155cc" xml:space="preserve" transform="matrix(.24 0 -0 .24 11.9906 201.83063)" font-size="42" font-family="Spectral"><tspan y="-562" x="1111.674 1123.9253 1136.9747 1161.2382 1184.4935 1204.641 1227.9384 1240.9878 1265.2512 1275.6547 1295.592 1318.0914 1353.9049 1364.3084 1377.3578 1401.6212 1412.0247 1435.322 1455.6795 1479.9429 1492.9923 1513.1398">linkedin.com/in/daniel</tspan></text>
<text fill="#1155cc" xml:space="preserve" transform="matrix(.24 0 -0 .24 11.9906 201.83063)" font-size="42" font-family="Spectral"><tspan y="-562" x="1525.413">-</tspan></text>
<text fill="#1155cc" xml:space="preserve" transform="matrix(.24 0 -0 .24 11.9906 201.83063)" font-size="42" font-family="Spectral"><tspan y="-562" x="1541.038 1576.8723 1597.2507 1621.4932 1633.7655 1653.9338">mahler</tspan></text>
<text xml:space="preserve" transform="matrix(.24 0 -0 .24 11.9906 201.83063)" font-size="29" font-family="Spectral"><tspan y="-562" x="1670.452"> </tspan></text>
<text xml:space="preserve" transform="matrix(.24 0 -0 .24 11.9906 201.83063)" font-size="42" font-family="Spectral"><tspan y="-562" x="1677.744 1698.576">&#x2022; </tspan></text>
<text fill="#1155cc" xml:space="preserve" transform="matrix(.24 0 -0 .24 11.9906 201.83063)" font-size="42" font-family="Spectral"><tspan y="-562" x="1708.994 1731.7454 1744.7948 1759.5662 1783.8296 1807.2109 1830.5503 1840.9537 1860.9331 1883.4325 1919.246 1929.6494 1952.9468 1973.3042 1997.5676 2010.6171 2030.7645 2043.0159 2078.8294 2099.1868 2123.4503 2135.7017 2155.849 2172.3846">github.com/danielmahler1</tspan></text>
<text xml:space="preserve" transform="matrix(.24 0 -0 .24 11.9906 201.83063)" font-size="29" font-family="Spectral"><tspan y="-562" x="2193.232"> </tspan></text>
<text xml:space="preserve" transform="matrix(.24 0 -0 .24 11.9906 201.83063)" font-size="29" font-family="Spectral"><tspan y="-511" x="1227.541"> </tspan></text>
<text xml:space="preserve" transform="matrix(.24238809 0 -0 .2376354 11.9906 201.83063)" font-size="45.54679" font-family="Spectral"><tspan y="-454.1708" x="73.270969 103.7691 139.82393 177.42736 211.29595 246.25766 277.75785 296.36827 333.8806">EDUCATION</tspan></text>
<text xml:space="preserve" transform="matrix(.24238809 0 -0 .2376354 11.9906 201.83063)" font-size="45.54679" font-family="Spectral"><tspan y="-454.1708" x="73.270969 103.7691 139.82393 177.42736 211.29595 246.25766 277.75785 296.36827 333.8806">EDUCATION</tspan></text>
<text xml:space="preserve" transform="matrix(.24 0 -0 .24 11.9906 201.83063)" font-size="46" font-family="Spectral"><tspan y="-449" x="374.7528"> </tspan></text>
<g clip-path="url(#clip_0)">
<path transform="matrix(1,0,0,-1,0,792)" d="M28.3106 691.9294H584.8706V691.2094H28.3106Z"/>
</g>
<text xml:space="preserve" transform="matrix(.24 0 -0 .24 11.9906 201.83063)" font-size="21" font-family="Spectral"><tspan y="-399" x="74.00004"> </tspan></text>
<text xml:space="preserve" transform="matrix(.24238809 0 -0 .2376354 11.9906 201.83063)" font-size="45.54679" font-family="Spectral"><tspan y="-344.0862" x="73.270969 110.89262 138.2207 153.34224 176.02455 198.88906 217.83652 238.33258 253.45412 270.44309 293.12538 304.46653 329.88166 346.32408 357.66523 393.73829 416.60276 430.85893 453.9511 489.02217 512.1144 531.0619 553.9264 565.2675 577.5196">University of Delaware | </tspan></text>
<text xml:space="preserve" transform="matrix(.24238809 0 -0 .2376354 11.9906 201.83063)" font-size="45.54679" font-family="Spectral"><tspan y="-344.0862" x="73.270969 110.89262 138.2207 153.34224 176.02455 198.88906 217.83652 238.33258 253.45412 270.44309 293.12538 304.46653 329.88166 346.32408 357.66523 393.73829 416.60276 430.85893 453.9511 489.02217 512.1144 531.0619 553.9264 565.2675 577.5196">University of Delaware | </tspan></text>
<text xml:space="preserve" transform="matrix(.24238812 0 -0 .23763542 11.9906 201.83063)" font-size="41.586198" font-family="Spectral"><tspan y="-344.04658" x="588.8449 622.63369 643.4476 675.32339 696.3036 713.49948 737.3491 748.47348 758.76608 791.55679">Newark, DE</tspan></text>
<text xml:space="preserve" transform="matrix(.24238812 0 -0 .23763542 11.9906 201.83063)" font-size="41.586198" font-family="Spectral"><tspan y="-344.04658" x="588.8449 622.63369 643.4476 675.32339 696.3036 713.49948 737.3491 748.47348 758.76608 791.55679">Newark, DE</tspan></text>
<text xml:space="preserve" transform="matrix(.24238809 0 -0 .2376354 11.9906 201.83063)" font-size="45.54679" font-family="Spectral"><tspan y="-344.0862" x="819.33956 830.6853 842.031 853.3767 864.7225 876.0682 887.4139 898.75967 910.10537 921.4511 932.7968 944.1425 955.4883 966.834 978.1797 989.52548 1000.87118 1012.21688 1023.5626 1034.9083 1046.254 1057.5997 1068.9454 1080.2913 1091.637 1102.9827 1114.3284 1125.6741 1137.0198 1148.3656 1159.7113 1171.057 1182.4027 1193.7484 1205.0941 1216.44 1227.7857 1239.1314 1250.477 1261.8228 1273.1686 1284.5143 1295.86 1307.2057 1318.5514 1329.8971 1341.2429 1352.5886 1363.9343 1375.28 1386.6257 1397.9714 1409.3173 1420.663 1432.0087 1443.3544 1454.7001 1466.0458 1477.3916 1488.7373 1500.083 1511.4287 1522.7744 1534.1201 1545.466 1556.8117 1568.1574 1579.503 1590.8488 1602.1945 1613.5403 1624.886 1636.2317 1647.5774 1658.9231 1670.2688 1681.6146 1692.9603 1704.306 1715.6517 1726.9974 1738.3432 1749.689">                                                                                   </tspan></text>
<text xml:space="preserve" transform="matrix(.24238809 0 -0 .2376354 11.9906 201.83063)" font-size="45.54679" font-family="Spectral"><tspan y="-344.0862" x="819.33956 830.6853 842.031 853.3767 864.7225 876.0682 887.4139 898.75967 910.10537 921.4511 932.7968 944.1425 955.4883 966.834 978.1797 989.52548 1000.87118 1012.21688 1023.5626 1034.9083 1046.254 1057.5997 1068.9454 1080.2913 1091.637 1102.9827 1114.3284 1125.6741 1137.0198 1148.3656 1159.7113 1171.057 1182.4027 1193.7484 1205.0941 1216.44 1227.7857 1239.1314 1250.477 1261.8228 1273.1686 1284.5143 1295.86 1307.2057 1318.5514 1329.8971 1341.2429 1352.5886 1363.9343 1375.28 1386.6257 1397.9714 1409.3173 1420.663 1432.0087 1443.3544 1454.7001 1466.0458 1477.3916 1488.7373 1500.083 1511.4287 1522.7744 1534.1201 1545.466 1556.8117 1568.1574 1579.503 1590.8488 1602.1945 1613.5403 1624.886 1636.2317 1647.5774 1658.9231 1670.2688 1681.6146 1692.9603 1704.306 1715.6517 1726.9974 1738.3432 1749.689">                                                                                   </tspan></text>
<text xml:space="preserve" transform="matrix(.24 0 -0 .24 11.9906 201.83063)" font-size="42" font-family="Spectral"><tspan y="-340" x="1778.534"> </tspan></text>
<text xml:space="preserve" transform="matrix(.24238812 0 -0 .23763542 11.9906 201.83063)" font-size="41.586198" font-family="Spectral"><tspan y="-274.36" x="73.27095 101.24182 112.370288 135.1013 146.22978 156.52652 170.27492 195.12685 205.42359 236.18073 259.286 295.5741 319.80223 343.78083 359.1927 379.96913 397.1692 407.46595 430.19694 450.76545 464.51387 485.29029 510.14219 530.7107 551.4872 562.61569 572.9124 603.6696 626.7749 651.6268 672.1953 692.9718 717.82369 733.23556 750.43557 771.4199 786.8318 800.58016 823.6854 848.53738 858.8341 872.5825 897.4344 907.7312 938.48837 959.09848 983.03549 1003.8119 1021.01199 1039.6675 1060.444 1081.0125 1104.9911 1122.1912 1135.9395 1151.3513 1171.9614 1182.258 1193.3865 1203.6832 1236.1869 1263.326 1295.0812 1306.2096">B.S. in Computer Science; Concentration in Cybersecurity | GPA: </tspan></text>
<text xml:space="preserve" transform="matrix(.24238812 0 -0 .23763542 11.9906 201.83063)" font-size="41.586198" font-family="Spectral"><tspan y="-274.36" x="73.27095 101.24182 112.370288 135.1013 146.22978 156.52652 170.27492 195.12685 205.42359 236.18073 259.286 295.5741 319.80223 343.78083 359.1927 379.96913 397.1692 407.46595 430.19694 450.76545 464.51387 485.29029 510.14219 530.7107 551.4872 562.61569 572.9124 603.6696 626.7749 651.6268 672.1953 692.9718 717.82369 733.23556 750.43557 771.4199 786.8318 800.58016 823.6854 848.53738 858.8341 872.5825 897.4344 907.7312 938.48837 959.09848 983.03549 1003.8119 1021.01199 1039.6675 1060.444 1081.0125 1104.9911 1122.1912 1135.9395 1151.3513 1171.9614 1182.258 1193.3865 1203.6832 1236.1869 1263.326 1295.0812 1306.2096">B.S. in Computer Science; Concentration in Cybersecurity | GPA: </tspan></text>
<text xml:space="preserve" transform="matrix(.24 0 -0 .24 11.9906 201.83063)" font-size="42" font-family="Spectral"><tspan y="-271" x="1330.013 1350.845">3.</tspan></text>
<text xml:space="preserve" transform="matrix(.24 0 -0 .24 11.9906 201.83063)" font-size="42" font-family="Spectral"><tspan y="-271" x="1361.263">8</tspan></text>
<text xml:space="preserve" transform="matrix(.24 0 -0 .24 11.9906 201.83063)" font-size="42" font-family="Spectral"><tspan y="-271" x="1382.096 1392.512 1413.344 1423.76 1444.592 1455.008 1465.4241 1475.8401 1486.2561 1496.6721 1507.0881 1517.5042 1527.9202 1538.3362 1548.7522 1559.1682 1569.5842 1580.0003 1590.4163 1600.8323 1611.2483 1621.6643 1632.0803 1642.4963 1652.9124 1663.3284 1673.7444 1684.1604 1694.5764 1704.9924 1715.4085 1725.8245 1736.2405 1746.6565 1757.0725 1767.4885 1777.9046 1788.3206 1798.7366 1809.1526 1819.5686 1829.9846 1840.4006 1850.8167 1861.2327 1871.6487 1882.0647 1892.4807 1902.8967 1913.3128 1923.7288 1934.1448 1944.5608 1954.9768 1965.3928 1975.8088 1986.2249 1996.6409 2007.0569 2017.4729 2027.8889 2038.3049 2048.721 2059.137 2069.553 2079.969 2090.385 2100.801 2111.217 2121.633 2132.049 2142.465 2152.881 2163.297">/4.0                                                                      </tspan></text>
<text xml:space="preserve" transform="matrix(.24 0 -0 .24 11.9906 201.83063)" font-size="42" font-family="Spectral"><tspan y="-271" x="2173.763"> </tspan></text>
<text xml:space="preserve" transform="matrix(.24238809 0 -0 .2376354 11.9906 201.83063)" font-size="45.54679" font-family="Spectral"><tspan y="-274.39964" x="2159.6043 2204.0306 2227.1409 2249.8416 2261.201 2284.8123 2308.4239 2332.0355">May 2026</tspan></text>
<text xml:space="preserve" transform="matrix(.24238809 0 -0 .2376354 11.9906 201.83063)" font-size="45.54679" font-family="Spectral"><tspan y="-274.39964" x="2159.6043 2204.0306 2227.1409 2249.8416 2261.201 2284.8123 2308.4239 2332.0355">May 2026</tspan></text>
<text xml:space="preserve" transform="matrix(.24238809 0 -0 .2376354 11.9906 201.83063)" font-size="45.54679" font-family="Spectral"><tspan y="-274.39964" x="2355.5614"> </tspan></text>
<text xml:space="preserve" transform="matrix(.24238809 0 -0 .2376354 11.9906 201.83063)" font-size="45.54679" font-family="Spectral"><tspan y="-274.39964" x="2355.5614"> </tspan></text>
<text xml:space="preserve" transform="matrix(.24238812 0 -0 .23763542 11.9906 201.83063)" font-size="41.586198" font-family="Spectral"><tspan y="-208.71323" x="73.27095 113.65946 127.39123 152.22652 175.31517 192.54019 202.8619 216.59366 241.42894 251.75064 279.7049 303.66688 322.30583 336.03758 360.87284 381.67424 400.31318 418.9521 429.27378 461.05397 484.93275 521.2458 534.9776 559.81289 573.5446 592.18356 607.62039 624.84536 645.85476 661.29159 675.0233 698.11196">Minor in Business Administration</tspan></text>
<text xml:space="preserve" transform="matrix(.24238812 0 -0 .23763542 11.9906 201.83063)" font-size="41.586198" font-family="Spectral"><tspan y="-208.71323" x="73.27095 113.65946 127.39123 152.22652 175.31517 192.54019 202.8619 216.59366 241.42894 251.75064 279.7049 303.66688 322.30583 336.03758 360.87284 381.67424 400.31318 418.9521 429.27378 461.05397 484.93275 521.2458 534.9776 559.81289 573.5446 592.18356 607.62039 624.84536 645.85476 661.29159 675.0233 698.11196">Minor in Business Administration</tspan></text>
<text xml:space="preserve" transform="matrix(.24238809 0 -0 .2376354 11.9906 201.83063)" font-size="45.54679" font-family="Spectral"><tspan y="-208.75284" x="722.9525"> </tspan></text>
<text xml:space="preserve" transform="matrix(.24238809 0 -0 .2376354 11.9906 201.83063)" font-size="45.54679" font-family="Spectral"><tspan y="-208.75284" x="722.9525"> </tspan></text>
<text xml:space="preserve" transform="matrix(.24238812 0 -0 .23763542 11.9906 201.83063)" font-size="41.586198" font-family="Spectral"><tspan y="-144.0764" x="73.27095 101.366588 122.14304 135.10132 155.87779 176.48792 197.4723 222.32424 237.73607 248.03282 278.78999 301.89527 325.87388 343.0739 361.7295 382.50596 401.16154">Relevant Courses:</tspan></text>
<text xml:space="preserve" transform="matrix(.24238812 0 -0 .23763542 11.9906 201.83063)" font-size="41.586198" font-family="Spectral"><tspan y="-144.0764" x="73.27095 101.366588 122.14304 135.10132 155.87779 176.48792 197.4723 222.32424 237.73607 248.03282 278.78999 301.89527 325.87388 343.0739 361.7295 382.50596 401.16154">Relevant Courses:</tspan></text>
<text xml:space="preserve" transform="matrix(.24 0 -0 .24 11.9906 201.83063)" font-size="42" font-family="Spectral"><tspan y="-142" x="416.4907"> </tspan></text>
<text xml:space="preserve" transform="matrix(.24 0 -0 .24 11.9906 201.83063)" font-size="42" font-family="Spectral"><tspan y="-142" x="426.9073 459.1969 479.5585 494.2921 514.6537 525.06137 547.18698 561.92056 578.4601 601.84567 621.78726 636.5208 659.9064 676.4459 696.59756 714.6071 725.0148 735.4224 775.398 795.7596 815.7012 839.96878 853.0224 877.29 897.4416 907.84927 941.48287 958.0224 980.77798 1001.1395 1025.4071 1038.4607 1058.5283 1078.8899 1093.6234 1106.677 1129.1806 1153.4481 1163.8557 1174.2633 1207.8969 1231.5344 1251.686 1268.2256 1288.5872 1303.3207 1316.3743 1340.6419 1363.3975 1373.805 1395.9307 1415.9143 1433.9238 1448.6574 1468.809 1504.6266 1522.6361 1533.0437 1543.4513 1575.7409 1588.7944 1606.804 1626.7455 1643.285 1663.4367 1678.1702 1698.3218 1708.7294 1748.705 1769.0665 1783.8 1808.0676 1828.2192 1864.0369 1884.3984 1899.132 1912.1856 1932.1271">Data Structures, Machine Organization, Operating Systems, Discrete Mathematics</tspan></text>
<text xml:space="preserve" transform="matrix(.24 0 -0 .24 11.9906 201.83063)" font-size="42" font-family="Spectral"><tspan y="-142" x="1950.367 1960.783 1971.199 2002.447 2014.711 2037.4751 2059.987 2076.5352 2089.5552 2104.297 2128.5313 2164.3572">, Algorithms</tspan></text>
<text xml:space="preserve" transform="matrix(.24 0 -0 .24 11.9906 201.83063)" font-size="42" font-family="Spectral"><tspan y="-142" x="2182.363"> </tspan></text>
<text xml:space="preserve" transform="matrix(.24 0 -0 .24 11.9906 201.83063)" font-size="21" font-family="Spectral"><tspan y="-101" x="74.00004"> </tspan></text>
<text xml:space="preserve" transform="matrix(.24238809 0 -0 .2376354 11.9906 201.83063)" font-size="45.54679" font-family="Spectral"><tspan y="-43.120927" x="73.270969 104.76657 135.26015 169.12419 206.7686 243.91202 262.51789 296.3819 331.33909">TECHNICAL</tspan></text>
<text xml:space="preserve" transform="matrix(.24238809 0 -0 .2376354 11.9906 201.83063)" font-size="45.54679" font-family="Spectral"><tspan y="-43.120927" x="73.270969 104.76657 135.26015 169.12419 206.7686 243.91202 262.51789 296.3819 331.33909">TECHNICAL</tspan></text>
<text xml:space="preserve" transform="matrix(.24238812 0 -0 .2376354 11.9906 201.83063)" font-size="37.625608" font-family="Spectral"><tspan y="-43.041719" x="360.93998"> </tspan></text>
<text xml:space="preserve" transform="matrix(.24238812 0 -0 .2376354 11.9906 201.83063)" font-size="37.625608" font-family="Spectral"><tspan y="-43.041719" x="360.93998"> </tspan></text>
<text xml:space="preserve" transform="matrix(.24238809 0 -0 .2376354 11.9906 201.83063)" font-size="45.54679" font-family="Spectral"><tspan y="-43.120927" x="370.22264 395.2278 428.75028 447.3789 476.9843 506.58973">SKILLS</tspan></text>
<text xml:space="preserve" transform="matrix(.24238809 0 -0 .2376354 11.9906 201.83063)" font-size="45.54679" font-family="Spectral"><tspan y="-43.120927" x="370.22264 395.2278 428.75028 447.3789 476.9843 506.58973">SKILLS</tspan></text>
<text xml:space="preserve" transform="matrix(.24 0 -0 .24 11.9906 201.83063)" font-size="46" font-family="Spectral"><tspan y="-42" x="536.8398"> </tspan></text>
<g clip-path="url(#clip_1)">
<path transform="matrix(1,0,0,-1,0,792)" d="M28.3106 594.2494H584.8706V593.5294H28.3106Z"/>
</g>
<text xml:space="preserve" transform="matrix(.24 0 -0 .24 11.9906 201.83063)" font-size="21" font-family="Spectral"><tspan y="8" x="74.00004"> </tspan></text>
<text xml:space="preserve" transform="matrix(.24238812 0 -0 .23763542 11.9906 201.83063)" font-size="41.586198" font-family="Spectral"><tspan y="61.95353" x="73.27095 100.41842 117.626789 140.7404 164.10355 181.31192 202.30464 238.60108 274.8975 288.6542 313.47288 336.83598 347.14106 374.039 395.0317 419.85038 443.21348 467.20039 488.19309 511.5562 532.34097 551.0049">Programming Languages:</tspan></text>
<text xml:space="preserve" transform="matrix(.24238812 0 -0 .23763542 11.9906 201.83063)" font-size="41.586198" font-family="Spectral"><tspan y="61.95353" x="73.27095 100.41842 117.626789 140.7404 164.10355 181.31192 202.30464 238.60108 274.8975 288.6542 313.47288 336.83598 347.14106 374.039 395.0317 419.85038 443.21348 467.20039 488.19309 511.5562 532.34097 551.0049">Programming Languages:</tspan></text>
<text xml:space="preserve" transform="matrix(.24 0 -0 .24 11.9906 201.83063)" font-size="42" font-family="Spectral"><tspan y="62" x="567.6951 578.11117">  </tspan></text>
<text xml:space="preserve" transform="matrix(.24 0 -0 .24 11.9906 201.83063)" font-size="42" font-family="Spectral"><tspan y="62" x="588.5284 604.7782 625.144 645.1318 665.49758 675.90939 686.32119 712.90298 732.89077 747.62857 771.9003 794.40817 818.67996 829.09176 839.50357 869.7394 880.1512 890.563 920.7988 941.62667 962.45449 972.8663 983.2781 1011.3719 1031.3598 1055.0016 1075.1574 1093.1712 1113.117 1129.6608 1142.7185 1166.3604 1181.0982 1191.5099 1201.9216">Java, Python, C, C++, Typescript, R</tspan></text>
<text xml:space="preserve" transform="matrix(.24 0 -0 .24 11.9906 201.83063)" font-size="42" font-family="Spectral"><tspan y="62" x="1229.515"> </tspan></text>
<text xml:space="preserve" transform="matrix(.24238812 0 -0 .23763542 11.9906 201.83063)" font-size="41.586198" font-family="Spectral"><tspan y="125.58037" x="73.27095 114.56604 135.35915 159.27121 169.58458 202.39609 223.1892 243.81595 264.60905 277.58393 300.70585 324.909 361.21376 382.00685 406.8338 422.26228 433.40739">Web Development: </tspan></text>
<text xml:space="preserve" transform="matrix(.24238812 0 -0 .23763542 11.9906 201.83063)" font-size="41.586198" font-family="Spectral"><tspan y="125.58037" x="73.27095 114.56604 135.35915 159.27121 169.58458 202.39609 223.1892 243.81595 264.60905 277.58393 300.70585 324.909 361.21376 382.00685 406.8338 422.26228 433.40739">Web Development: </tspan></text>
<text xml:space="preserve" transform="matrix(.24 0 -0 .24 11.9906 201.83063)" font-size="42" font-family="Spectral"><tspan y="125" x="448.1161 475.6555 495.8029 516.1603 536.13967 550.911 561.3144">React, </tspan></text>
<text xml:space="preserve" transform="matrix(.24 0 -0 .24 11.9906 201.83063)" font-size="42" font-family="Spectral"><tspan y="125" x="571.7377 605.4889 633.57009 673.5373">HTML</tspan></text>
<text xml:space="preserve" transform="matrix(.24 0 -0 .24 11.9906 201.83063)" font-size="42" font-family="Spectral"><tspan y="125" x="699.8606 710.2766 720.6926 748.79067 769.16067 782.18069 794.44467 825.8186 838.8386 863.07266 886.34066 896.75668 926.99667 949.1307 971.2647 981.6807 992.09677 1024.1008 1037.1209">, Tailwind CSS, Git</tspan></text>
<text xml:space="preserve" transform="matrix(.24 0 -0 .24 11.9906 201.83063)" font-size="42" font-family="Spectral"><tspan y="125" x="1051.936"> </tspan></text>
<text xml:space="preserve" transform="matrix(.24 0 -0 .24 11.9906 201.83063)" font-size="21" font-family="Spectral"><tspan y="166" x="74.00004"> </tspan></text>
<text xml:space="preserve" transform="matrix(.24238809 0 -0 .2376354 11.9906 201.83063)" font-size="45.54679" font-family="Spectral"><tspan y="226.53583" x="73.270969 103.13144 134.0395 171.55184 200.31919 230.81732 255.80429 280.79127 299.40168 336.91404 374.062 409.0237">PROFESSIONAL</tspan></text>
<text xml:space="preserve" transform="matrix(.24238809 0 -0 .2376354 11.9906 201.83063)" font-size="45.54679" font-family="Spectral"><tspan y="226.53583" x="73.270969 103.13144 134.0395 171.55184 200.31919 230.81732 255.80429 280.79127 299.40168 336.91404 374.062 409.0237">PROFESSIONAL</tspan></text>
<text xml:space="preserve" transform="matrix(.24238812 0 -0 .2376354 11.9906 201.83063)" font-size="37.625608" font-family="Spectral"><tspan y="226.61513" x="438.67793"> </tspan></text>
<text xml:space="preserve" transform="matrix(.24238812 0 -0 .2376354 11.9906 201.83063)" font-size="37.625608" font-family="Spectral"><tspan y="226.61513" x="438.67793"> </tspan></text>
<text xml:space="preserve" transform="matrix(.24238809 0 -0 .2376354 11.9906 201.83063)" font-size="45.54679" font-family="Spectral"><tspan y="226.53583" x="447.96064 478.45878 512.965 542.8255 573.3236 604.2316 622.84207 653.34017 690.4881 724.3567">EXPERIENCE</tspan></text>
<text xml:space="preserve" transform="matrix(.24238809 0 -0 .2376354 11.9906 201.83063)" font-size="45.54679" font-family="Spectral"><tspan y="226.53583" x="447.96064 478.45878 512.965 542.8255 573.3236 604.2316 622.84207 653.34017 690.4881 724.3567">EXPERIENCE</tspan></text>
<text xml:space="preserve" transform="matrix(.24 0 -0 .24 11.9906 201.83063)" font-size="46" font-family="Spectral"><tspan y="225" x="762.3362"> </tspan></text>
<g clip-path="url(#clip_2)">
<path transform="matrix(1,0,0,-1,0,792)" d="M28.3106 530.1694H584.8706V529.4494H28.3106Z"/>
</g>
<text xml:space="preserve" transform="matrix(.24 0 -0 .24 11.9906 201.83063)" font-size="21" font-family="Spectral"><tspan y="275" x="74.00004"> </tspan></text>
<text xml:space="preserve" transform="matrix(.24238809 0 -0 .2376354 11.9906 201.83063)" font-size="45.54679" font-family="Spectral"><tspan y="338.64036" x="73.270969 107.758998 122.88964 141.80069 158.7532 185.13391 210.55812 231.06331 256.48753 267.83778 302.3258 325.42713 339.69239 362.56599">Virtuoso Valet</tspan></text>
<text xml:space="preserve" transform="matrix(.24238809 0 -0 .2376354 11.9906 201.83063)" font-size="45.54679" font-family="Spectral"><tspan y="338.64036" x="73.270969 107.758998 122.88964 141.80069 158.7532 185.13391 210.55812 231.06331 256.48753 267.83778 302.3258 325.42713 339.69239 362.56599">Virtuoso Valet</tspan></text>
<text xml:space="preserve" transform="matrix(.24238812 0 -0 .2376354 11.9906 201.83063)" font-size="37.625608" font-family="Spectral"><tspan y="338.7196" x="379.50019"> </tspan></text>
<text xml:space="preserve" transform="matrix(.24238812 0 -0 .2376354 11.9906 201.83063)" font-size="37.625608" font-family="Spectral"><tspan y="338.7196" x="379.50019"> </tspan></text>
<text xml:space="preserve" transform="matrix(.24238812 0 -0 .23763539 11.9906 201.83063)" font-size="47.52708" font-family="Spectral"><tspan y="338.6206" x="388.78285">|</tspan></text>
<text xml:space="preserve" transform="matrix(.24238812 0 -0 .23763539 11.9906 201.83063)" font-size="47.52708" font-family="Spectral"><tspan y="338.6206" x="388.78285">|</tspan></text>
<text xml:space="preserve" transform="matrix(.24238812 0 -0 .2376354 11.9906 201.83063)" font-size="37.625608" font-family="Spectral"><tspan y="338.7196" x="401.59275"> </tspan></text>
<text xml:space="preserve" transform="matrix(.24238812 0 -0 .2376354 11.9906 201.83063)" font-size="37.625608" font-family="Spectral"><tspan y="338.7196" x="401.59275"> </tspan></text>
<text xml:space="preserve" transform="matrix(.24238809 0 -0 .2376354 11.9906 201.83063)" font-size="45.54679" font-family="Spectral"><tspan y="338.64036" x="410.87544 441.37358 464.4931 485.01649 501.9872 513.3101 544.0815 563.01077 589.36416 616.67398 637.1974 672.2958 687.39907 710.0632 736.2799 748.5138 759.8367 796.9846 815.59506 826.9179 838.2408 849.56369 860.88656 872.2094 883.5323 894.85519 906.17807 917.5009 928.82388 940.1467 951.4696 962.7925 974.11538">East Brunswick, NJ               </tspan></text>
<text xml:space="preserve" transform="matrix(.24238809 0 -0 .2376354 11.9906 201.83063)" font-size="45.54679" font-family="Spectral"><tspan y="338.64036" x="410.87544 441.37358 464.4931 485.01649 501.9872 513.3101 544.0815 563.01077 589.36416 616.67398 637.1974 672.2958 687.39907 710.0632 736.2799 748.5138 759.8367 796.9846 815.59506 826.9179 838.2408 849.56369 860.88656 872.2094 883.5323 894.85519 906.17807 917.5009 928.82388 940.1467 951.4696 962.7925 974.11538">East Brunswick, NJ               </tspan></text>
<text xml:space="preserve" transform="matrix(.24238809 0 -0 .2376354 11.9906 201.83063)" font-size="45.54679" font-family="Spectral"><tspan y="338.64036" x="985.80746 997.15316 1008.49887 1019.8446 1031.1903 1042.536 1053.8817 1065.2276 1076.5733 1087.919 1099.2647 1110.6104 1121.956 1133.3019 1144.6476 1155.9933 1167.339 1178.6847 1190.0304 1201.3762 1212.7219 1224.0676 1235.4133 1246.759 1258.1047 1269.4506 1280.7963 1292.142 1303.4877 1314.8334 1326.1791 1337.5249 1348.8706">                                 </tspan></text>
<text xml:space="preserve" transform="matrix(.24238809 0 -0 .2376354 11.9906 201.83063)" font-size="45.54679" font-family="Spectral"><tspan y="338.64036" x="985.80746 997.15316 1008.49887 1019.8446 1031.1903 1042.536 1053.8817 1065.2276 1076.5733 1087.919 1099.2647 1110.6104 1121.956 1133.3019 1144.6476 1155.9933 1167.339 1178.6847 1190.0304 1201.3762 1212.7219 1224.0676 1235.4133 1246.759 1258.1047 1269.4506 1280.7963 1292.142 1303.4877 1314.8334 1326.1791 1337.5249 1348.8706">                                 </tspan></text>
<text xml:space="preserve" transform="matrix(.24238809 0 -0 .2376354 11.9906 201.83063)" font-size="45.54679" font-family="Spectral"><tspan y="338.64036" x="1360.2074 1371.5531 1382.8988 1394.2445 1405.5902 1416.936 1428.2817 1439.6275 1450.9732 1462.3189 1473.6646 1485.0104 1496.3561 1507.7018 1519.0475 1530.3932 1541.7389 1553.0847 1564.4304 1575.7761 1587.1218 1598.4675 1609.8132 1621.159 1632.5048 1643.8505 1655.1962 1666.5419 1677.8876 1689.2334 1700.5791 1711.9248 1723.2705 1734.6162 1745.9619 1757.3078 1768.6535 1779.9992 1791.3449 1802.6906 1814.0363 1825.3821 1836.7278">                                           </tspan></text>
<text xml:space="preserve" transform="matrix(.24238809 0 -0 .2376354 11.9906 201.83063)" font-size="45.54679" font-family="Spectral"><tspan y="338.64036" x="1360.2074 1371.5531 1382.8988 1394.2445 1405.5902 1416.936 1428.2817 1439.6275 1450.9732 1462.3189 1473.6646 1485.0104 1496.3561 1507.7018 1519.0475 1530.3932 1541.7389 1553.0847 1564.4304 1575.7761 1587.1218 1598.4675 1609.8132 1621.159 1632.5048 1643.8505 1655.1962 1666.5419 1677.8876 1689.2334 1700.5791 1711.9248 1723.2705 1734.6162 1745.9619 1757.3078 1768.6535 1779.9992 1791.3449 1802.6906 1814.0363 1825.3821 1836.7278">                                           </tspan></text>
<text xml:space="preserve" transform="matrix(.24238809 0 -0 .2376354 11.9906 201.83063)" font-size="45.54679" font-family="Spectral"><tspan y="338.64036" x="1848.061 1866.6669 1893.0158 1920.321 1943.2083 1954.5722 1978.1881 2001.8041 2025.42 2049.0362">June 2024 </tspan></text>
<text xml:space="preserve" transform="matrix(.24238809 0 -0 .2376354 11.9906 201.83063)" font-size="45.54679" font-family="Spectral"><tspan y="338.64036" x="1848.061 1866.6669 1893.0158 1920.321 1943.2083 1954.5722 1978.1881 2001.8041 2025.42 2049.0362">June 2024 </tspan></text>
<text xml:space="preserve" transform="matrix(.24238809 0 -0 .2376354 11.9906 201.83063)" font-size="45.54679" font-family="Spectral"><tspan y="338.64036" x="2060.309">&#x2013;</tspan></text>
<text xml:space="preserve" transform="matrix(.24238809 0 -0 .2376354 11.9906 201.83063)" font-size="45.54679" font-family="Spectral"><tspan y="338.64036" x="2060.309">&#x2013;</tspan></text>
<text xml:space="preserve" transform="matrix(.24238809 0 -0 .2376354 11.9906 201.83063)" font-size="45.54679" font-family="Spectral"><tspan y="338.64036" x="2083.9075"> </tspan></text>
<text xml:space="preserve" transform="matrix(.24238809 0 -0 .2376354 11.9906 201.83063)" font-size="45.54679" font-family="Spectral"><tspan y="338.64036" x="2083.9075"> </tspan></text>
<text xml:space="preserve" transform="matrix(.24238809 0 -0 .2376354 11.9906 201.83063)" font-size="45.54679" font-family="Spectral"><tspan y="338.64036" x="2095.2525 2130.196 2156.5767 2182.2742 2208.6546 2229.1597 2246.112 2257.4625 2281.0648 2304.667 2328.2694">August 2024</tspan></text>
<text xml:space="preserve" transform="matrix(.24238809 0 -0 .2376354 11.9906 201.83063)" font-size="45.54679" font-family="Spectral"><tspan y="338.64036" x="2095.2525 2130.196 2156.5767 2182.2742 2208.6546 2229.1597 2246.112 2257.4625 2281.0648 2304.667 2328.2694">August 2024</tspan></text>
<text xml:space="preserve" transform="matrix(.24238809 0 -0 .2376354 11.9906 201.83063)" font-size="45.54679" font-family="Spectral"><tspan y="338.64036" x="2351.8375"> </tspan></text>
<text xml:space="preserve" transform="matrix(.24238809 0 -0 .2376354 11.9906 201.83063)" font-size="45.54679" font-family="Spectral"><tspan y="338.64036" x="2351.8375"> </tspan></text>
<text xml:space="preserve" transform="matrix(.24 0 -.08156248 .24 11.9906 201.83063)" font-size="46" font-family="Spectral"><tspan y="407" x="212.3164 246.23221 268.648 282.13984 304.32563 320.53144 331.9992 366.37504 382.58085 398.78663 420.9724 447.6662 473.302 495.7178 522.4116">Valet Attendant</tspan></text>
<text xml:space="preserve" transform="matrix(.24238809 0 -0 .2376354 11.9906 201.83063)" font-size="45.54679" font-family="Spectral"><tspan y="410.34684" x="396.3371"> </tspan></text>
<text xml:space="preserve" transform="matrix(.24238809 0 -0 .2376354 11.9906 201.83063)" font-size="45.54679" font-family="Spectral"><tspan y="410.34684" x="396.3371"> </tspan></text>
<text xml:space="preserve" transform="matrix(.24 0 -0 .24 11.9906 201.83063)" font-size="42" font-family="Calibri"><tspan y="472" x="149">&#x25cf;</tspan></text>
<text xml:space="preserve" transform="matrix(.24 0 -0 .24 11.9906 201.83063)" font-size="42" font-family="ArialMT"><tspan y="472" x="174.1669"> </tspan></text>
<text xml:space="preserve" transform="matrix(.24 0 -0 .24 11.9906 201.83063)" font-size="42" font-family="Spectral"><tspan y="472" x="224 257.6252 271.88844 286.15165 306.33686">Offer</tspan></text>
<text xml:space="preserve" transform="matrix(.24 0 -0 .24 11.9906 201.83063)" font-size="42" font-family="Spectral"><tspan y="472" x="322.8312 342.99543">ed</tspan></text>
<text xml:space="preserve" transform="matrix(.24 0 -0 .24 11.9906 201.83063)" font-size="42" font-family="Spectral"><tspan y="472" x="366.2882"> </tspan></text>
<text xml:space="preserve" transform="matrix(.24 0 -0 .24 11.9906 201.83063)" font-size="42" font-family="Spectral"><tspan y="472" x="376.7049 396.8691 417.53733 437.49153 457.65574 469.92396 482.19218 502.35639 526.5946 541.3408 551.761 571.7152 595.0714 613.0936 627.83987 650.356 686.1862 706.3504 722.9026 733.32278 751.345 771.50918 788.06137 808.05758 821.0817 841.03598 861.20016 871.6203 882.04049 902.20468 926.4429 944.4651 967.8213 984.3735 997.39767 1021.63589 1044.404 1054.8242 1075.1984 1085.6185 1116.9967 1137.1609 1149.4291 1169.3833 1191.8995 1227.7297 1240.7539 1264.9921 1287.7603 1298.1804 1318.5546 1342.7927 1366.065 1376.4851 1400.0933 1416.6455 1439.1618 1453.4039 1473.5681 1491.5903 1509.6126 1522.6367 1545.153 1569.3911 1589.7653 1602.0335 1612.4536 1632.6178 1653.286 1676.8942 1697.0584 1713.6106 1726.6348 1746.799 1771.0371 1790.9913 1811.1555 1821.5757 1835.8179 1858.3341 1874.8864 1885.3065 1905.6807 1917.9489 1930.217 1940.6372 1963.4054 1986.7616 2006.9258 2024.948 2039.6942">excellent customer service, ensuring a welcoming and professional experience for all guests</tspan></text>
<text xml:space="preserve" transform="matrix(.24 0 -0 .24 11.9906 201.83063)" font-size="42" font-family="Spectral"><tspan y="472" x="2057.538"> </tspan></text>
<text xml:space="preserve" transform="matrix(.24 0 -0 .24 11.9906 201.83063)" font-size="42" font-family="Calibri"><tspan y="535" x="149">&#x25cf;</tspan></text>
<text xml:space="preserve" transform="matrix(.24 0 -0 .24 11.9906 201.83063)" font-size="42" font-family="ArialMT"><tspan y="535" x="174.1669"> </tspan></text>
<text xml:space="preserve" transform="matrix(.24 0 -0 .24 11.9906 201.83063)" font-size="42" font-family="Spectral"><tspan y="535" x="224 255.248 278.558 301.86805 318.41606 338.57606 356.59407">Address</tspan></text>
<text xml:space="preserve" transform="matrix(.24 0 -0 .24 11.9906 201.83063)" font-size="42" font-family="Spectral"><tspan y="535" x="374.5382 394.70243">ed</tspan></text>
<text xml:space="preserve" transform="matrix(.24 0 -0 .24 11.9906 201.83063)" font-size="42" font-family="Spectral"><tspan y="535" x="417.9952"> </tspan></text>
<text xml:space="preserve" transform="matrix(.24 0 -0 .24 11.9906 201.83063)" font-size="42" font-family="Spectral"><tspan y="535" x="428.4119 448.3703 471.7307 489.71513 504.4655 526.9439 562.7783 582.9467 599.5031 609.9275 629.88589 652.36428 676.6067 696.56509 716.73348 733.28988 757.5323 775.51669 785.94107 809.25949 829.2599 839.68429 852.71267 875.9891 896.1575 920.3999 935.15029 948.17868 962.42507 982.4255 995.45388 1019.6963 1042.4268 1052.8512 1065.8796 1083.864 1101.8484 1125.2088 1145.3772 1163.3616 1173.786 1184.2105 1197.2389 1233.0734 1256.6858 1268.9581 1289.1266 1324.961 1345.1295 1369.372 1384.1223 1397.1508 1421.3932 1444.1237 1454.5481 1472.5325 1495.0109 1507.2832 1530.6436 1545.3939 1558.4224 1580.9008 1605.1432 1623.1276 1633.552 1643.9765 1664.3549 1688.5973 1711.8737 1722.2981 1742.4666 1766.709 1784.6934 1808.0537 1824.6101 1837.6386 1861.881 1884.6115 1895.0359 1914.9943 1938.3546 1956.339 1971.0894 1993.5678 2029.4022 2049.5706 2066.127 2076.5513 2094.5357 2114.914 2129.6646 2142.6929 2160.6773 2174.9237 2195.302 2215.2606 2230.011 2243.0394 2265.5179">customer concerns by identifying issues, implementing solutions, and ensuring customer satisfaction</tspan></text>
<text xml:space="preserve" transform="matrix(.24 0 -0 .24 11.9906 201.83063)" font-size="42" font-family="Spectral"><tspan y="535" x="2290.194"> </tspan></text>
<text xml:space="preserve" transform="matrix(.24 0 -0 .24 11.9906 201.83063)" font-size="42" font-family="Calibri"><tspan y="598" x="149">&#x25cf;</tspan></text>
<text xml:space="preserve" transform="matrix(.24 0 -0 .24 11.9906 201.83063)" font-size="42" font-family="ArialMT"><tspan y="598" x="174.1669"> </tspan></text>
<text xml:space="preserve" transform="matrix(.24 0 -0 .24 11.9906 201.83063)" font-size="42" font-family="Spectral"><tspan y="598" x="224 257.6252 281.25444 301.43965 317.97087 338.36607 353.13328">Operate</tspan></text>
<text xml:space="preserve" transform="matrix(.24 0 -0 .24 11.9906 201.83063)" font-size="42" font-family="Spectral"><tspan y="598" x="373.2462">d</tspan></text>
<text xml:space="preserve" transform="matrix(.24 0 -0 .24 11.9906 201.83063)" font-size="42" font-family="Spectral"><tspan y="598" x="396.5373"> </tspan></text>
<text xml:space="preserve" transform="matrix(.24 0 -0 .24 11.9906 201.83063)" font-size="42" font-family="Spectral"><tspan y="598" x="406.9539 419.9949 444.24989 454.68687 475.07789 485.51487 499.77388 520.16488 538.16189">in a fast</tspan></text>
<text xml:space="preserve" transform="matrix(.24 0 -0 .24 11.9906 201.83063)" font-size="42" font-family="Spectral"><tspan y="598" x="552.825">-</tspan></text>
<text xml:space="preserve" transform="matrix(.24 0 -0 .24 11.9906 201.83063)" font-size="42" font-family="Spectral"><tspan y="598" x="568.45 592.075 612.466 632.437 652.618 675.907 686.34396 706.5249 730.7799 750.7929 763.83389 780.36087 802.85189 827.1069 862.9539 883.1349 907.3899 922.1529 932.58987">paced environment, </tspan></text>
<text xml:space="preserve" transform="matrix(.24 0 -0 .24 11.9906 201.83063)" font-size="42" font-family="Spectral"><tspan y="598" x="942.8569 974.2309 996.74288 1013.29086 1036.5588 1049.6209 1073.8549 1096.6189 1107.0349 1120.0969 1144.3309 1154.747 1169.4889 1189.6489 1210.0189 1245.845 1263.8629 1274.2789 1296.7909 1311.0288">working in teams of </tspan></text>
<text xml:space="preserve" transform="matrix(.24 0 -0 .24 11.9906 201.83063)" font-size="42" font-family="Spectral"><tspan y="598" x="1321.39">4</tspan></text>
<text xml:space="preserve" transform="matrix(.24 0 -0 .24 11.9906 201.83063)" font-size="42" font-family="Spectral"><tspan y="598" x="1342.223">-</tspan></text>
<text xml:space="preserve" transform="matrix(.24 0 -0 .24 11.9906 201.83063)" font-size="42" font-family="Spectral"><tspan y="598" x="1357.848 1378.68 1389.0961">8, </tspan></text>
<text xml:space="preserve" transform="matrix(.24 0 -0 .24 11.9906 201.83063)" font-size="42" font-family="Spectral"><tspan y="598" x="1399.515 1435.3494 1455.7278 1479.9702 1500.3486 1523.121 1536.1493 1560.3917 1583.1641 1593.5884 1608.3388 1621.3671 1657.2014 1677.3698 1687.7941 1702.5444 1725.0648 1735.4891 1755.6575 1779.8999 1797.8843 1821.2446 1837.801 1857.9694 1868.3937 1886.378 1922.2124 1944.7328 1967.2532 1982.0036 2006.246 2016.6703 2039.1907 2062.803 2082.9715 2099.5279 2119.9063 2134.6568 2147.685 2170.2054 2194.4478">managing time to ensure smooth operations</tspan></text>
<text xml:space="preserve" transform="matrix(.24 0 -0 .24 11.9906 201.83063)" font-size="42" font-family="Spectral"><tspan y="598" x="2212.328"> </tspan></text>
<text xml:space="preserve" transform="matrix(.24238809 0 -0 .2376354 11.9906 201.83063)" font-size="45.54679" font-family="Spectral"><tspan y="674.95388" x="73.270969 98.27616 123.69127 150.06287 167.05182 194.3799 229.45093 254.86606 280.28117 306.56166">Southwoods</tspan></text>
<text xml:space="preserve" transform="matrix(.24238809 0 -0 .2376354 11.9906 201.83063)" font-size="45.54679" font-family="Spectral"><tspan y="674.95388" x="73.270969 98.27616 123.69127 150.06287 167.05182 194.3799 229.45093 254.86606 280.28117 306.56166">Southwoods</tspan></text>
<text xml:space="preserve" transform="matrix(.24238812 0 -0 .2376354 11.9906 201.83063)" font-size="37.625608" font-family="Spectral"><tspan y="675.03317" x="327.0406"> </tspan></text>
<text xml:space="preserve" transform="matrix(.24238812 0 -0 .2376354 11.9906 201.83063)" font-size="37.625608" font-family="Spectral"><tspan y="675.03317" x="327.0406"> </tspan></text>
<text xml:space="preserve" transform="matrix(.24238812 0 -0 .23763539 11.9906 201.83063)" font-size="47.52708" font-family="Spectral"><tspan y="674.93417" x="336.32325">|</tspan></text>
<text xml:space="preserve" transform="matrix(.24238812 0 -0 .23763539 11.9906 201.83063)" font-size="47.52708" font-family="Spectral"><tspan y="674.93417" x="336.32325">|</tspan></text>
<text xml:space="preserve" transform="matrix(.24238812 0 -0 .2376354 11.9906 201.83063)" font-size="37.625608" font-family="Spectral"><tspan y="675.03317" x="349.13316"> </tspan></text>
<text xml:space="preserve" transform="matrix(.24238812 0 -0 .2376354 11.9906 201.83063)" font-size="37.625608" font-family="Spectral"><tspan y="675.03317" x="349.13316"> </tspan></text>
<text xml:space="preserve" transform="matrix(.24238809 0 -0 .2376354 11.9906 201.83063)" font-size="45.54679" font-family="Spectral"><tspan y="674.95388" x="358.41584 388.2763 411.39585 430.32508 453.44459 479.70689 505.10377 528.5421 540.776 552.0989 589.2468">Paradox, NY</tspan></text>
<text xml:space="preserve" transform="matrix(.24238809 0 -0 .2376354 11.9906 201.83063)" font-size="45.54679" font-family="Spectral"><tspan y="674.95388" x="358.41584 388.2763 411.39585 430.32508 453.44459 479.70689 505.10377 528.5421 540.776 552.0989 589.2468">Paradox, NY</tspan></text>
<text xml:space="preserve" transform="matrix(.24238809 0 -0 .2376354 11.9906 201.83063)" font-size="45.54679" font-family="Spectral"><tspan y="674.95388" x="622.7594 634.10519 645.45089 656.7966 668.14236 679.48806 690.83377 702.1795 713.5252 724.8709 736.2167 747.5624 758.9081 770.25387 781.59957 792.94528 804.291 815.6367 826.9824 838.3282 849.6739 861.0196 872.36538 883.71109 895.05679 906.4025">                          </tspan></text>
<text xml:space="preserve" transform="matrix(.24238809 0 -0 .2376354 11.9906 201.83063)" font-size="45.54679" font-family="Spectral"><tspan y="674.95388" x="622.7594 634.10519 645.45089 656.7966 668.14236 679.48806 690.83377 702.1795 713.5252 724.8709 736.2167 747.5624 758.9081 770.25387 781.59957 792.94528 804.291 815.6367 826.9824 838.3282 849.6739 861.0196 872.36538 883.71109 895.05679 906.4025">                          </tspan></text>
<text xml:space="preserve" transform="matrix(.24238809 0 -0 .2376354 11.9906 201.83063)" font-size="45.54679" font-family="Spectral"><tspan y="674.95388" x="917.7408 929.08657 940.43228 951.77798 963.1237 974.4694 985.8151 997.1609 1008.5066 1019.8523 1031.198 1042.5438 1053.8895 1065.2352 1076.5809 1087.9266 1099.2723 1110.6182 1121.9639 1133.3096 1144.6553 1156.001 1167.3467 1178.6925 1190.0382 1201.3839 1212.7296 1224.0753 1235.421 1246.7669 1258.1126 1269.4583 1280.804 1292.1497 1303.4954 1314.8412 1326.1869 1337.5326 1348.8783 1360.224 1371.5697 1382.9155 1394.2612 1405.6069 1416.9526 1428.2984 1439.644 1450.9899 1462.3356 1473.6813 1485.027 1496.3727 1507.7185 1519.0642 1530.4099 1541.7556 1553.1013 1564.447 1575.7929 1587.1386 1598.4843 1609.83 1621.1757 1632.5214 1643.8672 1655.2129 1666.5586 1677.9043 1689.25 1700.5957 1711.9415 1723.2872 1734.6329 1745.9786 1757.3244 1768.67 1780.0159 1791.3616 1802.7073 1814.053 1825.3987 1836.7444">                                                                                  </tspan></text>
<text xml:space="preserve" transform="matrix(.24238809 0 -0 .2376354 11.9906 201.83063)" font-size="45.54679" font-family="Spectral"><tspan y="674.95388" x="917.7408 929.08657 940.43228 951.77798 963.1237 974.4694 985.8151 997.1609 1008.5066 1019.8523 1031.198 1042.5438 1053.8895 1065.2352 1076.5809 1087.9266 1099.2723 1110.6182 1121.9639 1133.3096 1144.6553 1156.001 1167.3467 1178.6925 1190.0382 1201.3839 1212.7296 1224.0753 1235.421 1246.7669 1258.1126 1269.4583 1280.804 1292.1497 1303.4954 1314.8412 1326.1869 1337.5326 1348.8783 1360.224 1371.5697 1382.9155 1394.2612 1405.6069 1416.9526 1428.2984 1439.644 1450.9899 1462.3356 1473.6813 1485.027 1496.3727 1507.7185 1519.0642 1530.4099 1541.7556 1553.1013 1564.447 1575.7929 1587.1386 1598.4843 1609.83 1621.1757 1632.5214 1643.8672 1655.2129 1666.5586 1677.9043 1689.25 1700.5957 1711.9415 1723.2872 1734.6329 1745.9786 1757.3244 1768.67 1780.0159 1791.3616 1802.7073 1814.053 1825.3987 1836.7444">                                                                                  </tspan></text>
<text xml:space="preserve" transform="matrix(.24238815 0 -0 .23763542 11.9906 201.83063)" font-size="32.674867" font-family="Spectral"><tspan y="675.0826" x="1848.0665"> </tspan></text>
<text xml:space="preserve" transform="matrix(.24238815 0 -0 .23763542 11.9906 201.83063)" font-size="32.674867" font-family="Spectral"><tspan y="675.0826" x="1848.0665"> </tspan></text>
<text xml:space="preserve" transform="matrix(.24238809 0 -0 .2376354 11.9906 201.83063)" font-size="45.54679" font-family="Spectral"><tspan y="674.95388" x="1856.319 1874.9248 1901.2736 1928.579 1951.4662 1962.8301 1986.446 2010.062 2033.678 2057.294">June 2023 </tspan></text>
<text xml:space="preserve" transform="matrix(.24238809 0 -0 .2376354 11.9906 201.83063)" font-size="45.54679" font-family="Spectral"><tspan y="674.95388" x="1856.319 1874.9248 1901.2736 1928.579 1951.4662 1962.8301 1986.446 2010.062 2033.678 2057.294">June 2023 </tspan></text>
<text xml:space="preserve" transform="matrix(.24238809 0 -0 .2376354 11.9906 201.83063)" font-size="45.54679" font-family="Spectral"><tspan y="674.95388" x="2068.566">-</tspan></text>
<text xml:space="preserve" transform="matrix(.24238809 0 -0 .2376354 11.9906 201.83063)" font-size="45.54679" font-family="Spectral"><tspan y="674.95388" x="2068.566">-</tspan></text>
<text xml:space="preserve" transform="matrix(.24238809 0 -0 .2376354 11.9906 201.83063)" font-size="45.54679" font-family="Spectral"><tspan y="674.95388" x="2086.4915"> </tspan></text>
<text xml:space="preserve" transform="matrix(.24238809 0 -0 .2376354 11.9906 201.83063)" font-size="45.54679" font-family="Spectral"><tspan y="674.95388" x="2086.4915"> </tspan></text>
<text xml:space="preserve" transform="matrix(.24238809 0 -0 .2376354 11.9906 201.83063)" font-size="45.54679" font-family="Spectral"><tspan y="674.95388" x="2097.8367 2132.7803 2159.161 2184.8582 2211.2388 2231.7437 2248.696 2260.0467 2283.649 2307.2513 2330.8536">August 2023</tspan></text>
<text xml:space="preserve" transform="matrix(.24238809 0 -0 .2376354 11.9906 201.83063)" font-size="45.54679" font-family="Spectral"><tspan y="674.95388" x="2097.8367 2132.7803 2159.161 2184.8582 2211.2388 2231.7437 2248.696 2260.0467 2283.649 2307.2513 2330.8536">August 2023</tspan></text>
<text xml:space="preserve" transform="matrix(.24238809 0 -0 .2376354 11.9906 201.83063)" font-size="45.54679" font-family="Spectral"><tspan y="674.95388" x="2354.4217"> </tspan></text>
<text xml:space="preserve" transform="matrix(.24238809 0 -0 .2376354 11.9906 201.83063)" font-size="45.54679" font-family="Spectral"><tspan y="674.95388" x="2354.4217"> </tspan></text>
<text xml:space="preserve" transform="matrix(.24 0 -.08156248 .24 11.9906 201.83063)" font-size="46" font-family="Spectral"><tspan y="740" x="325.48439 355.64198 380.37159 402.80119 419.02079 430.50239 466.042 484.23957 498.57319 520.58877 542.7883">Boat Driver</tspan></text>
<text xml:space="preserve" transform="matrix(.24 0 -.08156248 .24 11.9906 201.83063)" font-size="46" font-family="Spectral"><tspan y="740" x="560.9254"> </tspan></text>
<text xml:space="preserve" transform="matrix(.24 0 -0 .24 11.9906 201.83063)" font-size="42" font-family="Calibri"><tspan y="805" x="149">&#x25cf;</tspan></text>
<text xml:space="preserve" transform="matrix(.24 0 -0 .24 11.9906 201.83063)" font-size="42" font-family="ArialMT"><tspan y="805" x="174.1669"> </tspan></text>
<text xml:space="preserve" transform="matrix(.24 0 -0 .24 11.9906 201.83063)" font-size="42" font-family="Spectral"><tspan y="805" x="224 251.1656 275.4332 299.70079 320.06239 344.32997 364.27156 384.42314 407.72474 418.13233 441.76994 462.13154 480.14115 498.15077 518.30239 542.56997 565.32559 585.4772 602.0168 612.4244 630.43399 650.79556 665.06716 685.21878 699.95236 719.9359 730.3435 753.6871 773.67068 784.07827 800.61788 813.67147 836.42709 858.93069 875.4703 897.9739 921.3595 939.3691 951.62466 971.6082 982.0158 996.2874 1018.791 1031.0466 1043.3023 1065.8058 1097.1714 1110.225 1134.4926 1157.2482 1167.6558 1203.4734 1223.835 1240.3745 1253.4281 1268.1618 1281.2153 1317.033 1337.1846 1347.5922 1364.1317 1384.2833 1407.039 1430.4246 1442.6802 1463.0418 1477.7754 1490.829 1513.3325 1537.6001 1555.6098 1566.0173 1586.3789 1610.6465 1633.9481 1644.3557 1664.2974 1686.8009 1711.0685 1734.3701 1757.7557 1777.6974 1792.431 1805.4846 1829.7522 1852.5078 1862.9154 1879.455 1899.6066 1922.3622 1945.7478 1958.0034 1978.365 1994.9046 2005.3121 2041.1298 2061.4915 2074.545 2098.8126 2113.5462 2133.6978 2157.9654 2178.327 2202.5946 2222.5362 2242.6878 2253.0953 2275.5989 2299.8665">Enhanced passenger safety by rigorously following maritime regulations and conducting regular maintenance on </tspan></text>
<text xml:space="preserve" transform="matrix(.24 0 -0 .24 11.9906 201.83063)" font-size="42" font-family="Spectral"><tspan y="868" x="224 255.37401 275.74403 290.48603 310.64604 327.19404 337.61003 357.60203 377.76203 395.78004 413.79804 433.95805 446.22206">water vessels</tspan></text>
<text xml:space="preserve" transform="matrix(.24 0 -0 .24 11.9906 201.83063)" font-size="42" font-family="Spectral"><tspan y="868" x="464.2008 474.6168 485.03279 501.58079 521.7408 545.0088 568.36087 588.31088 601.3309 625.5649 648.3289 658.74496 682.34896 704.86099 719.60299 739.763 763.997 778.739 791.75906 812.129 824.393 834.809 852.827 873.197 887.43508 907.5951 922.3371 942.3291 952.7451 965.76516 989.99917 1009.94918 1022.9692 1046.2372 1066.3972 1090.6312 1105.3733 1123.3914 1133.8074 1154.1774 1178.4114 1201.6795 1212.0955 1225.1155 1260.9415 1284.5455 1301.0935 1323.6055 1343.5975 1356.6176 1380.8516 1403.6156 1414.0316 1433.9817 1457.3338 1475.3518 1490.0939 1512.6058 1548.4319 1568.5919 1585.1399 1595.5559 1610.298 1626.846 1650.198 1668.2161">, reducing potential safety incidents and improving customer trust</tspan></text>
<text xml:space="preserve" transform="matrix(.24 0 -0 .24 11.9906 201.83063)" font-size="42" font-family="Spectral"><tspan y="868" x="1683.334"> </tspan></text>
<text xml:space="preserve" transform="matrix(.24 0 -0 .24 11.9906 201.83063)" font-size="42" font-family="Calibri"><tspan y="931" x="149">&#x25cf;</tspan></text>
<text xml:space="preserve" transform="matrix(.24 0 -0 .24 11.9906 201.83063)" font-size="42" font-family="ArialMT"><tspan y="931" x="174.1669"> </tspan></text>
<text xml:space="preserve" transform="matrix(.24 0 -0 .24 11.9906 201.83063)" font-size="42" font-family="Spectral"><tspan y="931" x="224 263.9588 284.3456 308.5964 328.98323 351.72203 371.8988 395.18363 405.61643 419.87123 443.24003 463.4168 475.6556 488.6924 512.9432 535.68197 546.11477 556.54757 592.3903 612.77719 625.81399 650.06478 664.8236 685.0004 709.2512 729.63809 753.88888 773.8557 794.03256 804.46536 814.89816 835.285 859.53579 882.82058 893.25338 906.29019 930.54098 950.5498 970.7266 994.9774 1009.73629 1032.223 1048.7459">Managed fueling, maintenance, and inventory</tspan></text>
<text xml:space="preserve" transform="matrix(.24 0 -0 .24 11.9906 201.83063)" font-size="42" font-family="Spectral"><tspan y="931" x="1068.562"> </tspan></text>
<text xml:space="preserve" transform="matrix(.24 0 -0 .24 11.9906 201.83063)" font-size="42" font-family="Spectral"><tspan y="931" x="1078.979 1101.4784 1115.7457 1126.1492 1149.4885 1171.9879 1192.3453 1207.1167 1225.1221">of boats </tspan></text>
<text xml:space="preserve" transform="matrix(.24 0 -0 .24 11.9906 201.83063)" font-size="42" font-family="Spectral"><tspan y="931" x="1235.516 1250.2664 1272.7448 1283.1692 1305.8997 1329.2601 1349.6386 1366.195 1386.5734 1410.8158 1425.5662 1445.7346 1465.9031 1476.3275 1491.0779 1515.3203 1535.4888 1545.9132 1569.2737 1593.5161 1606.5446 1630.787 1645.5374 1665.7058 1682.2622 1698.8186 1722.1791 1745.7915 1760.5419 1780.7103 1803.9867 1814.4111 1836.8895 1860.502 1880.6704 1897.2268 1917.6052 1932.3556 1945.384 1967.8624 1992.1049 2002.5293 2025.0077 2039.2542 2049.6785 2064.429 2088.6715 2108.8399 2119.2642 2150.6466 2171.025 2185.7755 2205.9439">to guarantee the uninterrupted operation of the water</tspan></text>
<text xml:space="preserve" transform="matrix(.24 0 -0 .24 11.9906 201.83063)" font-size="42" font-family="Spectral"><tspan y="931" x="2222.574"> </tspan></text>
<text xml:space="preserve" transform="matrix(.24 0 -0 .24 11.9906 201.83063)" font-size="42" font-family="Spectral"><tspan y="931" x="2232.99 2252.9906 2273.159 2291.1434 2309.1278 2329.2962 2341.5687">vessels</tspan></text>
<text xml:space="preserve" transform="matrix(.24 0 -0 .24 11.9906 201.83063)" font-size="42" font-family="Spectral"><tspan y="931" x="2359.569"> </tspan></text>
<text xml:space="preserve" transform="matrix(.24 0 -0 .24 11.9906 201.83063)" font-size="42" font-family="Calibri"><tspan y="995" x="149">&#x25cf;</tspan></text>
<text xml:space="preserve" transform="matrix(.24 0 -0 .24 11.9906 201.83063)" font-size="42" font-family="ArialMT"><tspan y="995" x="174.1669"> </tspan></text>
<text xml:space="preserve" transform="matrix(.24 0 -0 .24 11.9906 201.83063)" font-size="42" font-family="Spectral"><tspan y="995" x="224 240.2498 276.0716 299.7134 311.9732 332.12904 367.95085 388.10667 412.37849 427.11628 447.2721 470.5779 480.98973 501.14555 515.37936 529.61318 549.769 569.7148 584.4526 597.5104 617.49819 637.654">Implemented effective </tspan></text>
<text xml:space="preserve" transform="matrix(.24 0 -0 .24 11.9906 201.83063)" font-size="42" font-family="Spectral"><tspan y="995" x="648.1547 666.15597 680.92318 697.45437 717.80758 732.57479 752.71798 775.46517 788.5103 808.6535 826.6547">strategies </tspan></text>
<text xml:space="preserve" transform="matrix(.24 0 -0 .24 11.9906 201.83063)" font-size="42" font-family="Spectral"><tspan y="995" x="837.1073 868.4813 881.54336 896.28536 920.51937 930.93539 950.8854 967.43338 987.5933 1018.96737 1029.3833 1065.2094 1085.3694 1121.1954 1144.5474 1164.7074 1181.2554 1199.2733">with crew members </tspan></text>
<text xml:space="preserve" transform="matrix(.24 0 -0 .24 11.9906 201.83063)" font-size="42" font-family="Spectral"><tspan y="995" x="1209.681 1224.4314 1246.9098 1257.3342 1270.3627 1306.1972 1329.8096 1346.366 1368.8444 1388.8447 1409.0132 1419.4376 1439.396 1461.8744 1497.7089 1533.5433 1556.9038 1581.1463 1594.1747 1614.133 1634.5115 1649.2619 1662.2903 1684.7687 1709.0111 1719.4356 1739.814 1764.0564 1787.3328 1797.7572 1812.5076 1832.676 1853.0545 1888.8889 1920.2714 1942.7498 1959.3062 1982.5405">to improve communication and teamwork </tspan></text>
<text xml:space="preserve" transform="matrix(.24 0 -0 .24 11.9906 201.83063)" font-size="42" font-family="Spectral"><tspan y="995" x="1993.079 2007.8294 2030.3078 2040.7322 2060.9007 2085.143 2109.3856 2129.764 2154.0064 2173.9649 2194.1334 2204.5577 2227.0362 2247.0367 2267.205 2283.7615 2304.14 2316.4124 2328.6849">to enhance overall </tspan></text>
<text xml:space="preserve" transform="matrix(.24 0 -0 .24 11.9906 201.83063)" font-size="42" font-family="Spectral"><tspan y="1058" x="224 247.625 268.016 286.01298 304.00996 324.19096 348.44596 371.18898 391.36997 407.89698 418.33399 436.33097 456.72196 471.48497 484.52598 502.52296 516.7819 537.1729 557.1439 571.9069 584.9479 607.4389 631.6939 642.13088 662.52188 686.77688 710.06588 720.5028 738.4998 758.8908 773.1498 793.33078 808.09378">passenger satisfaction and safety</tspan></text>
<text xml:space="preserve" transform="matrix(.24 0 -0 .24 11.9906 201.83063)" font-size="42" font-family="Spectral"><tspan y="1058" x="827.8575"> </tspan></text>
<text xml:space="preserve" transform="matrix(.24 0 -0 .24 11.9906 201.83063)" font-size="21" font-family="Spectral"><tspan y="1099" x="224"> </tspan></text>
<text xml:space="preserve" transform="matrix(.24238809 0 -0 .2376354 11.9906 201.83063)" font-size="45.54679" font-family="Spectral"><tspan y="1168.8197" x="73.270969 103.13144 134.0395 171.55184 190.16226 220.6604 254.52899 286.02915">PROJECTS</tspan></text>
<text xml:space="preserve" transform="matrix(.24238809 0 -0 .2376354 11.9906 201.83063)" font-size="45.54679" font-family="Spectral"><tspan y="1168.8197" x="73.270969 103.13144 134.0395 171.55184 190.16226 220.6604 254.52899 286.02915">PROJECTS</tspan></text>
<text xml:space="preserve" transform="matrix(.24 0 -0 .24 11.9906 201.83063)" font-size="46" font-family="Spectral"><tspan y="1158" x="314.1154"> </tspan></text>
<g clip-path="url(#clip_3)">
<path transform="matrix(1,0,0,-1,0,792)" d="M28.3106 306.2494H584.8706V305.5294H28.3106Z"/>
</g>
<text xml:space="preserve" transform="matrix(.24 0 -0 .24 11.9906 201.83063)" font-size="21" font-family="Spectral"><tspan y="1208" x="74.00004"> </tspan></text>
<text xml:space="preserve" transform="matrix(.24238809 0 -0 .2376354 11.9906 201.83063)" font-size="45.54679" font-family="Spectral"><tspan y="1278.9043" x="73.270969 107.12589 130.23178 149.14737 172.02553 194.90369 213.81928 225.17409 262.85496 285.73313 300.00294 326.66148">Career Helpi</tspan></text>
<text xml:space="preserve" transform="matrix(.24238809 0 -0 .2376354 11.9906 201.83063)" font-size="45.54679" font-family="Spectral"><tspan y="1278.9043" x="73.270969 107.12589 130.23178 149.14737 172.02553 194.90369 213.81928 225.17409 262.85496 285.73313 300.00294 326.66148">Career Helpi</tspan></text>
<text xml:space="preserve" transform="matrix(.24238809 0 -0 .2376354 11.9906 201.83063)" font-size="45.54679" font-family="Spectral"><tspan y="1278.9043" x="341.69889 353.04457 364.39027 375.73597 387.08164 398.42735 409.77305 421.1187 432.46443 443.81013 455.15583 466.5015 477.8472 489.1929 500.53858 511.88429 523.23 534.57577 545.92147 557.26718 568.6129 579.9586 591.3043 602.6501 613.9958 625.3415 636.68728 648.03298 659.37869 670.7244 682.0701 693.41586 704.7616 716.1073 727.453 738.79879 750.1445 761.4902 772.83596 784.18167 795.52737 806.8731 818.2188 829.5645 840.9103 852.256 863.60177 874.94747 886.29318 897.6389 908.9846 920.3303 931.6761 943.0218 954.3675 965.71328 977.05899 988.40469 999.7504 1011.0961 1022.4418 1033.7875 1045.1332 1056.479 1067.8247 1079.1704 1090.5161 1101.8618 1113.2075 1124.5534 1135.899 1147.2448 1158.5905 1169.9362 1181.282 1192.6277 1203.9734 1215.3191 1226.6648 1238.0105 1249.3563 1260.702 1272.0477 1283.3934 1294.7391 1306.0848 1317.4307 1328.7764 1340.1221 1351.4678 1362.8135 1374.1592 1385.505 1396.8507 1408.1964 1419.5421 1430.8878 1442.2335 1453.5794 1464.925 1476.2708 1487.6165 1498.9622 1510.3079 1521.6537 1532.9994 1544.3451 1555.6908 1567.0365 1578.3822 1589.728 1601.0737 1612.4194 1623.7651 1635.1109 1646.4566 1657.8024 1669.1481 1680.4938">                                                                                                                       </tspan></text>
<text xml:space="preserve" transform="matrix(.24238809 0 -0 .2376354 11.9906 201.83063)" font-size="45.54679" font-family="Spectral"><tspan y="1278.9043" x="341.69889 353.04457 364.39027 375.73597 387.08164 398.42735 409.77305 421.1187 432.46443 443.81013 455.15583 466.5015 477.8472 489.1929 500.53858 511.88429 523.23 534.57577 545.92147 557.26718 568.6129 579.9586 591.3043 602.6501 613.9958 625.3415 636.68728 648.03298 659.37869 670.7244 682.0701 693.41586 704.7616 716.1073 727.453 738.79879 750.1445 761.4902 772.83596 784.18167 795.52737 806.8731 818.2188 829.5645 840.9103 852.256 863.60177 874.94747 886.29318 897.6389 908.9846 920.3303 931.6761 943.0218 954.3675 965.71328 977.05899 988.40469 999.7504 1011.0961 1022.4418 1033.7875 1045.1332 1056.479 1067.8247 1079.1704 1090.5161 1101.8618 1113.2075 1124.5534 1135.899 1147.2448 1158.5905 1169.9362 1181.282 1192.6277 1203.9734 1215.3191 1226.6648 1238.0105 1249.3563 1260.702 1272.0477 1283.3934 1294.7391 1306.0848 1317.4307 1328.7764 1340.1221 1351.4678 1362.8135 1374.1592 1385.505 1396.8507 1408.1964 1419.5421 1430.8878 1442.2335 1453.5794 1464.925 1476.2708 1487.6165 1498.9622 1510.3079 1521.6537 1532.9994 1544.3451 1555.6908 1567.0365 1578.3822 1589.728 1601.0737 1612.4194 1623.7651 1635.1109 1646.4566 1657.8024 1669.1481 1680.4938">                                                                                                                       </tspan></text>
<text xml:space="preserve" transform="matrix(.24238809 0 -0 .2376354 11.9906 201.83063)" font-size="45.54679" font-family="Spectral"><tspan y="1278.9043" x="1691.8069 1703.1526 1714.4983 1725.844 1737.1897 1748.5355 1759.8812 1771.2269 1782.5726 1793.9183 1805.2642 1816.6099 1827.9556 1839.3013 1850.647 1861.9927 1873.3385 1884.6842 1896.0299 1907.3756 1918.7213 1930.067 1941.4129 1952.7586 1964.1043 1975.45 1986.7957 1998.1414 2009.4872 2020.8329 2032.1785 2043.524 2054.8697 2066.2154 2077.5609 2088.9066 2100.252 2111.5977 2122.9434 2134.2889 2145.6346">                                         </tspan></text>
<text xml:space="preserve" transform="matrix(.24238809 0 -0 .2376354 11.9906 201.83063)" font-size="45.54679" font-family="Spectral"><tspan y="1278.9043" x="1691.8069 1703.1526 1714.4983 1725.844 1737.1897 1748.5355 1759.8812 1771.2269 1782.5726 1793.9183 1805.2642 1816.6099 1827.9556 1839.3013 1850.647 1861.9927 1873.3385 1884.6842 1896.0299 1907.3756 1918.7213 1930.067 1941.4129 1952.7586 1964.1043 1975.45 1986.7957 1998.1414 2009.4872 2020.8329 2032.1785 2043.524 2054.8697 2066.2154 2077.5609 2088.9066 2100.252 2111.5977 2122.9434 2134.2889 2145.6346">                                         </tspan></text>
<text xml:space="preserve" transform="matrix(.24238809 0 -0 .2376354 11.9906 201.83063)" font-size="45.54679" font-family="Spectral"><tspan y="1278.9043" x="2156.9693 2201.3956 2224.5059 2247.2066 2258.566 2282.1776 2305.7889 2329.4005">May 2024</tspan></text>
<text xml:space="preserve" transform="matrix(.24238809 0 -0 .2376354 11.9906 201.83063)" font-size="45.54679" font-family="Spectral"><tspan y="1278.9043" x="2156.9693 2201.3956 2224.5059 2247.2066 2258.566 2282.1776 2305.7889 2329.4005">May 2024</tspan></text>
<text xml:space="preserve" transform="matrix(.24 0 -0 .24 11.9906 201.83063)" font-size="46" font-family="Spectral"><tspan y="1267" x="2376.339"> </tspan></text>
<text xml:space="preserve" transform="matrix(.24 0 -0 .24 11.9906 201.83063)" font-size="42" font-family="Calibri"><tspan y="1332" x="149">&#x25cf;</tspan></text>
<text xml:space="preserve" transform="matrix(.24 0 -0 .24 11.9906 201.83063)" font-size="42" font-family="ArialMT"><tspan y="1332" x="174.1669"> </tspan></text>
<text xml:space="preserve" transform="matrix(.24 0 -0 .24 11.9906 201.83063)" font-size="42" font-family="Spectral"><tspan y="1332" x="224 254.2484 276.76884 289.04124 301.31364 321.69206 345.01045 367.53086 384.08726 404.46568 419.21607 439.3845 462.6609 473.0853 504.4677 517.4961 532.24649 556.48886 566.91329 587.2916 597.71609 612.46646 632.6348 653.0132 688.8476 699.27206 721.7924 736.0388 746.46328 767.30368 777.7281 792.47848 814.99887 825.4233 848.69967 868.86807 888.8684 909.0368 921.3092 943.8296 967.44198 977.8664 998.24478 1008.6692 1022.9156 1046.276 1070.5184 1090.4768 1105.2272 1118.2555 1140.7759 1165.0183 1185.3967 1197.6691 1208.0934 1239.4758 1259.6442 1282.9625 1293.3869 1313.7653 1337.3777 1360.9901 1373.2625 1386.2908 1406.2492 1426.6276 1441.3779 1454.4063 1476.9266 1501.1691 1511.5934 1534.9537 1552.9381 1565.9664 1590.2089 1612.9812 1623.4055 1651.47 1671.4703 1695.0828 1715.2511 1733.2355 1753.1939 1769.7503 1782.7786 1806.391 1821.1414 1831.5657 1851.9441 1876.1865 1899.4629 1909.8872 1937.9517 1958.3301 1971.3584 1983.6307 2015.0132 2028.0415 2052.284 2075.5604 2085.9847 2116.233 2138.3753 2160.5177 2170.942 2185.6925 2208.213 2218.6373 2238.5958 2255.152 2275.3206 2295.699 2310.4495 2330.618">Collaborated with a team of 3 to develop a functional web application using Typescript and Tailwind CSS to create </tspan></text>
<text xml:space="preserve" transform="matrix(.24 0 -0 .24 11.9906 201.83063)" font-size="42" font-family="Spectral"><tspan y="1395" x="224 247.331 269.822 284.585 308.84 319.277 342.608 362.999 380.99598 394.037 414.008 424.445 444.836 469.091 492.38 502.81703 526.106 546.287 561.05 581.441 594.48196 606.7249 626.9059 650.1949 660.63186 680.60287 700.99386 717.5208 737.7018 757.88278 774.4097 784.8467 808.0937 831.4667 844.5077 864.6047 884.70169 904.8826">both basic and detailed career quizzes</tspan></text>
<text xml:space="preserve" transform="matrix(.24 0 -0 .24 11.9906 201.83063)" font-size="42" font-family="Spectral"><tspan y="1395" x="922.6053"> </tspan></text>
<text xml:space="preserve" transform="matrix(.24 0 -0 .24 11.9906 201.83063)" font-size="42" font-family="Calibri"><tspan y="1459" x="149">&#x25cf;</tspan></text>
<text xml:space="preserve" transform="matrix(.24 0 -0 .24 11.9906 201.83063)" font-size="42" font-family="ArialMT"><tspan y="1459" x="174.1669"> </tspan></text>
<text xml:space="preserve" transform="matrix(.24 0 -0 .24 11.9906 201.83063)" font-size="42" font-family="Spectral"><tspan y="1459" x="224 240.2498 264.5216 284.4674 306.97523 323.519 347.16084 369.66865 386.21244 406.57826 421.31605 441.47187 464.77769 475.18949 508.82728 532.46908 552.6249 576.89669 608.1405 624.3903 634.8021 666.04598 692.6278 708.8776 719.2894 734.0272 756.53506 766.94686 790.5886 807.13247 829.64028 849.58609 869.7419 887.7557 905.7695 916.1813 939.44509 962.8349 975.8927 995.9645 1006.3763 1026.7421 1051.0139 1069.0277 1100.3976 1120.5534 1137.0972 1155.111 1165.5227 1185.8886 1210.1604 1233.4662 1243.8779 1260.4218 1280.5775 1295.3153 1318.7051 1335.2489 1359.5208 1369.9325 1401.1763">Incorporated OpenAI API to process quiz answers and return AI</tspan></text>
<text xml:space="preserve" transform="matrix(.24 0 -0 .24 11.9906 201.83063)" font-size="42" font-family="Spectral"><tspan y="1459" x="1417.265">-</tspan></text>
<text xml:space="preserve" transform="matrix(.24 0 -0 .24 11.9906 201.83063)" font-size="42" font-family="Spectral"><tspan y="1459" x="1432.89 1455.6414 1475.7888 1500.0523 1520.1997 1536.7351 1557.0925 1571.8639 1592.0114 1615.3087 1625.7122 1642.2476 1662.395 1680.4004 1703.7817 1716.0331 1730.8045 1748.8098 1759.2133 1775.7487 1795.8961 1815.8755 1838.3749 1874.1884 1910.0018 1930.1493 1954.4127 1977.7101 1990.7595 2015.023 2037.7743 2048.1778 2071.475 2084.5245 2098.7918 2113.059 2133.2066 2149.742 2169.8895 2194.1529 2208.9244 2219.3277 2239.3072 2259.6646 2276.2 2296.3475 2316.4949 2333.0303">generated results recommending different career </tspan></text>
<text xml:space="preserve" transform="matrix(.24 0 -0 .24 11.9906 201.83063)" font-size="42" font-family="Spectral"><tspan y="1522" x="224 247.625 268.016 282.779 307.034 325.03099 335.468 358.79899 379.18998 397.18696 417.36796 440.65696 451.09397 473.58497 497.83998 508.27699 528.66799 552.923 570.92 602.273 622.454 638.98098 656.97799 667.4149 680.45596 704.71096 728.33596 751.7089 766.4719 781.2349 801.4159 824.7049 835.14187 848.18289 872.43789 887.20089 909.6919 920.12887 934.89187 959.14688 979.3278 989.7648 1013.0118 1036.3848 1049.4258 1069.5228 1089.6199 1109.8009">paths based on answers inputted into the quizzes</tspan></text>
<text xml:space="preserve" transform="matrix(.24238812 0 -0 .23763542 11.9906 201.83063)" font-size="41.586198" font-family="Spectral"><tspan y="1536.481" x="1116.3655"> </tspan></text>
<text xml:space="preserve" transform="matrix(.24238812 0 -0 .23763542 11.9906 201.83063)" font-size="41.586198" font-family="Spectral"><tspan y="1536.481" x="1116.3655"> </tspan></text>
<text xml:space="preserve" transform="matrix(.24238809 0 -0 .2376354 11.9906 201.83063)" font-size="45.54679" font-family="Spectral"><tspan y="1605.1184" x="73.270969 108.21447 138.69438 168.53665 183.66728 195.01753 240.4368 263.3104 289.64555 310.1507 325.28138 342.23387 365.10746 376.4577 387.80799 399.15824 410.50849 421.85874 433.20899 444.55928 455.90953 467.25978 478.61003 489.96028 501.31056 512.66079 524.01107 535.3613 546.71157 558.0618 569.41207 580.7623 592.1126 603.4628 614.8131 626.1633 637.5136 648.8639 660.2141 671.5644 682.9146 694.2649 705.6152 716.9654 728.3157 739.6659 751.0162 762.36648 773.7167 785.06698 796.4172 807.76748 819.11776 830.46798 841.81826 853.16848 864.51876 875.869 887.21926 898.5695 909.91976 921.27 932.6203 943.9705 955.3208 966.671 978.0213 989.3716 1000.7218 1012.0721 1023.42239 1034.7727 1046.123 1057.4734 1068.8236 1080.174 1091.5243 1102.8746 1114.225 1125.5752 1136.9255 1148.2759 1159.6262 1170.9766 1182.3268 1193.6771 1205.0275 1216.3778 1227.7282 1239.0784 1250.4287 1261.779 1273.1294 1284.4797 1295.83 1307.1803 1318.5307 1329.881 1341.2312 1352.5816 1363.9319 1375.2822 1386.6326 1397.9828 1409.3331 1420.6835 1432.0338 1443.3842 1454.7344 1466.0847 1477.435 1488.7854 1500.1358 1511.486 1522.8363 1534.1867 1545.537 1556.8873 1568.2376 1579.5879 1590.9382 1602.2886 1613.6389 1624.9891 1636.3395">AEPi Website                                                                                                                 </tspan></text>
<text xml:space="preserve" transform="matrix(.24238809 0 -0 .2376354 11.9906 201.83063)" font-size="45.54679" font-family="Spectral"><tspan y="1605.1184" x="73.270969 108.21447 138.69438 168.53665 183.66728 195.01753 240.4368 263.3104 289.64555 310.1507 325.28138 342.23387 365.10746 376.4577 387.80799 399.15824 410.50849 421.85874 433.20899 444.55928 455.90953 467.25978 478.61003 489.96028 501.31056 512.66079 524.01107 535.3613 546.71157 558.0618 569.41207 580.7623 592.1126 603.4628 614.8131 626.1633 637.5136 648.8639 660.2141 671.5644 682.9146 694.2649 705.6152 716.9654 728.3157 739.6659 751.0162 762.36648 773.7167 785.06698 796.4172 807.76748 819.11776 830.46798 841.81826 853.16848 864.51876 875.869 887.21926 898.5695 909.91976 921.27 932.6203 943.9705 955.3208 966.671 978.0213 989.3716 1000.7218 1012.0721 1023.42239 1034.7727 1046.123 1057.4734 1068.8236 1080.174 1091.5243 1102.8746 1114.225 1125.5752 1136.9255 1148.2759 1159.6262 1170.9766 1182.3268 1193.6771 1205.0275 1216.3778 1227.7282 1239.0784 1250.4287 1261.779 1273.1294 1284.4797 1295.83 1307.1803 1318.5307 1329.881 1341.2312 1352.5816 1363.9319 1375.2822 1386.6326 1397.9828 1409.3331 1420.6835 1432.0338 1443.3842 1454.7344 1466.0847 1477.435 1488.7854 1500.1358 1511.486 1522.8363 1534.1867 1545.537 1556.8873 1568.2376 1579.5879 1590.9382 1602.2886 1613.6389 1624.9891 1636.3395">AEPi Website                                                                                                                 </tspan></text>
<text xml:space="preserve" transform="matrix(.24238809 0 -0 .2376354 11.9906 201.83063)" font-size="45.54679" font-family="Spectral"><tspan y="1605.1184" x="1647.1513 1658.497 1669.8427 1681.1884 1692.5342 1703.8799 1715.2256 1726.5713 1737.917 1749.2627 1760.6085 1771.9542 1783.2999 1794.6456 1805.9913 1817.337 1828.6829 1840.0286 1851.3743 1862.72 1874.0657 1885.4114 1896.7572 1908.1029 1919.4486 1930.7943 1942.14 1953.4857 1964.8316 1976.1773 1987.523 1998.8687 2010.2144">                                 </tspan></text>
<text xml:space="preserve" transform="matrix(.24238809 0 -0 .2376354 11.9906 201.83063)" font-size="45.54679" font-family="Spectral"><tspan y="1605.1184" x="1647.1513 1658.497 1669.8427 1681.1884 1692.5342 1703.8799 1715.2256 1726.5713 1737.917 1749.2627 1760.6085 1771.9542 1783.2999 1794.6456 1805.9913 1817.337 1828.6829 1840.0286 1851.3743 1862.72 1874.0657 1885.4114 1896.7572 1908.1029 1919.4486 1930.7943 1942.14 1953.4857 1964.8316 1976.1773 1987.523 1998.8687 2010.2144">                                 </tspan></text>
<text xml:space="preserve" transform="matrix(.24238809 0 -0 .2376354 11.9906 201.83063)" font-size="45.54679" font-family="Spectral"><tspan y="1605.1184" x="2021.5508 2032.8964 2044.2421 2055.5877 2066.933 2078.2789 2089.6246">       </tspan></text>
<text xml:space="preserve" transform="matrix(.24238809 0 -0 .2376354 11.9906 201.83063)" font-size="45.54679" font-family="Spectral"><tspan y="1605.1184" x="2021.5508 2032.8964 2044.2421 2055.5877 2066.933 2078.2789 2089.6246">       </tspan></text>
<text xml:space="preserve" transform="matrix(.24238809 0 -0 .2376354 11.9906 201.83063)" font-size="45.54679" font-family="Spectral"><tspan y="1605.1184" x="2100.9686 2145.395 2168.5054 2187.4256 2210.0804 2237.381 2248.7406 2272.3519 2295.9635 2319.575">March 2024</tspan></text>
<text xml:space="preserve" transform="matrix(.24238809 0 -0 .2376354 11.9906 201.83063)" font-size="45.54679" font-family="Spectral"><tspan y="1605.1184" x="2100.9686 2145.395 2168.5054 2187.4256 2210.0804 2237.381 2248.7406 2272.3519 2295.9635 2319.575">March 2024</tspan></text>
<text xml:space="preserve" transform="matrix(.24 0 -0 .24 11.9906 201.83063)" font-size="46" font-family="Spectral"><tspan y="1590" x="2366.437"> </tspan></text>
<text xml:space="preserve" transform="matrix(.24 0 -0 .24 11.9906 201.83063)" font-size="42" font-family="Calibri"><tspan y="1655" x="149">&#x25cf;</tspan></text>
<text xml:space="preserve" transform="matrix(.24 0 -0 .24 11.9906 201.83063)" font-size="42" font-family="ArialMT"><tspan y="1655" x="174.1669"> </tspan></text>
<text xml:space="preserve" transform="matrix(.24 0 -0 .24 11.9906 201.83063)" font-size="42" font-family="Spectral"><tspan y="1655" x="224 263.9588 284.3456 297.38243 321.6332 336.392 356.7788 369.8156 394.0664 414.2432 437.528 447.96083 468.34764 492.59843 515.8832 526.316 549.68478 573.30557 596.59036 616.9772 631.736 651.91287 675.19766 685.63046 706.0173 718.2561 734.77896 754.95578 775.3426 798.6274 818.6362 829.06906 849.0359 865.5587 885.73556 906.1224 920.8812 941.05807 964.34286 974.77566 994.7425 1017.22927 1040.514 1060.6908 1084.0176 1104.4043 1122.3971 1142.5739 1153.0066 1173.3933 1197.644 1220.9288 1231.3616 1254.6464 1275.0331 1289.7919 1310.1786 1333.5054 1353.8921 1371.8849 1392.0617 1402.4944 1417.2532 1439.74 1450.1727 1470.3495 1494.6002 1512.593 1535.9618 1552.4846 1572.6614 1583.0941 1603.0609 1625.5477 1649.7985 1667.7913 1680.828 1698.8208 1713.5796 1733.7564 1758.0071 1772.7659 1783.1986 1814.5894 1834.7661 1858.0929 1876.0857 1889.1224 1903.8812 1924.058 1934.4907 1958.1115 1978.2882 1994.811 2009.0658 2031.5526 2048.0755 2083.9183 2104.305 2128.5557 2148.5225 2168.6993 2179.132 2199.5189 2223.7696 2247.0543">Maintained and updated already created codebase and database to ensure consistent website performance and </tspan></text>
<text xml:space="preserve" transform="matrix(.24 0 -0 .24 11.9906 201.83063)" font-size="42" font-family="Spectral"><tspan y="1719" x="224 240.5396 260.6912 272.94679 286.00038 306.36198 329.70558 342.75917 355.01475 368.06834 382.80195 402.78556 413.19316 423.60075 443.96235 467.26396 490.56556 507.10517 527.2568 545.26638 563.27597 576.3295 600.59719 623.3528 633.7604 646.81399 664.82357 682.8331 706.21878 726.37039 744.37997 754.78756 775.1492 799.41677 822.7184 833.126 846.17959 881.99716 905.63479 917.8904 938.042 973.85958 994.01119 1018.2788 1033.0125 1046.066 1070.3336 1093.0892 1103.4968 1116.5504 1152.368 1176.0056 1192.5452 1215.0488 1235.0325 1255.1841 1291.0017 1311.1533 1335.4209 1350.1546 1368.1642 1378.5718 1398.9334 1416.943 1427.3506 1451.6182 1471.7698 1491.9214 1515.223 1535.3746">reliability, addressing issues and implementing improvements as needed</tspan></text>
<text xml:space="preserve" transform="matrix(.24 0 -0 .24 11.9906 201.83063)" font-size="42" font-family="Spectral"><tspan y="1719" x="1558.673"> </tspan></text>
<text xml:space="preserve" transform="matrix(.24 0 -0 .24 11.9906 201.83063)" font-size="42" font-family="Calibri"><tspan y="1782" x="149">&#x25cf;</tspan></text>
<text xml:space="preserve" transform="matrix(.24 0 -0 .24 11.9906 201.83063)" font-size="42" font-family="ArialMT"><tspan y="1782" x="174.1669"> </tspan></text>
<text xml:space="preserve" transform="matrix(.24 0 -0 .24 11.9906 201.83063)" font-size="42" font-family="Spectral"><tspan y="1782" x="224 254.2484 276.76884 301.01124 324.28764 347.648 367.6064 382.3568 402.52525 425.80165 436.22605 459.54444 482.90483 505.67723 516.1016 530.852 551.0204 569.00479 583.7551 596.7835 621.0259 643.7983 654.2227 674.6011 694.55947 711.11587 733.6362 751.6206 769.605 780.0294 800.4078 812.6802 824.9526 835.377 855.3354 877.8558 913.6902 937.30258 959.82296 984.0653 1004.2337 1028.4761 1043.2265 1061.2108 1071.6351 1086.3855 1108.9059 1119.3302 1139.4985 1163.741 1181.7254 1205.0857 1221.6421 1241.8104 1252.2348 1272.6132 1284.8855 1297.1578 1307.5822 1321.8285 1341.9968 1362.3753 1377.1256 1400.486 1417.0424 1437.2107 1455.1951 1465.6194 1483.6038 1503.7721 1524.1505 1559.9849 1572.2572 1592.4255 1610.4099 1628.3943 1638.8186 1651.8469 1676.0894 1690.8397 1711.008 1733.7804 1750.3368 1770.7152 1785.4656 1798.4939 1821.0143">Conducted bug testing across all components to ensure all features seamless integration</tspan></text>
<text xml:space="preserve" transform="matrix(.24 0 -0 .24 11.9906 201.83063)" font-size="21" font-family="Spectral"><tspan y="1782" x="1845.082"> </tspan></text>
<text xml:space="preserve" transform="matrix(.24 0 -0 .24 11.9906 201.83063)" font-size="21" font-family="Spectral"><tspan y="1823" x="224"> </tspan></text>
<text xml:space="preserve" transform="matrix(.24238809 0 -0 .2376354 11.9906 201.83063)" font-size="45.54679" font-family="Spectral"><tspan y="1900.0239" x="73.270969 102.85816 133.3563 168.31801 204.37287 234.871 265.77906 290.76603 328.415 347.02543">LEADERSHIP</tspan></text>
<text xml:space="preserve" transform="matrix(.24238809 0 -0 .2376354 11.9906 201.83063)" font-size="45.54679" font-family="Spectral"><tspan y="1900.0239" x="73.270969 102.85816 133.3563 168.31801 204.37287 234.871 265.77906 290.76603 328.415 347.02543">LEADERSHIP</tspan></text>
<text xml:space="preserve" transform="matrix(.24238812 0 -0 .2376354 11.9906 201.83063)" font-size="37.625608" font-family="Spectral"><tspan y="1900.1027" x="376.9146"> </tspan></text>
<text xml:space="preserve" transform="matrix(.24238812 0 -0 .2376354 11.9906 201.83063)" font-size="37.625608" font-family="Spectral"><tspan y="1900.1027" x="376.9146"> </tspan></text>
<text xml:space="preserve" transform="matrix(.24238809 0 -0 .2376354 11.9906 201.83063)" font-size="45.54679" font-family="Spectral"><tspan y="1900.0239" x="386.1973 416.69544 451.2017 481.06217 511.5603 542.4683 561.07876 591.57687 628.7248 662.5934">EXPERIENCE</tspan></text>
<text xml:space="preserve" transform="matrix(.24238809 0 -0 .2376354 11.9906 201.83063)" font-size="45.54679" font-family="Spectral"><tspan y="1900.0239" x="386.1973 416.69544 451.2017 481.06217 511.5603 542.4683 561.07876 591.57687 628.7248 662.5934">EXPERIENCE</tspan></text>
<text xml:space="preserve" transform="matrix(.24 0 -0 .24 11.9906 201.83063)" font-size="46" font-family="Spectral"><tspan y="1882" x="699.9583"> </tspan></text>
<g clip-path="url(#clip_4)">
<path transform="matrix(1,0,0,-1,0,792)" d="M28.3106 132.4894H584.8706V131.7694H28.3106Z"/>
</g>
<text xml:space="preserve" transform="matrix(.24 0 -0 .24 11.9906 201.83063)" font-size="21" font-family="Spectral"><tspan y="1932" x="74.00004"> </tspan></text>
<text xml:space="preserve" transform="matrix(.24238809 0 -0 .2376354 11.9906 201.83063)" font-size="45.54679" font-family="Spectral"><tspan y="2012.1284" x="73.270969 108.21447 138.69438 168.53665 183.66728 195.01753 223.81223 242.72325 265.8246 282.77708 305.65068 324.56169 351.89888 367.0295 383.98204 406.67344">AEPi Fraternity </tspan></text>
<text xml:space="preserve" transform="matrix(.24238809 0 -0 .2376354 11.9906 201.83063)" font-size="45.54679" font-family="Spectral"><tspan y="2012.1284" x="73.270969 108.21447 138.69438 168.53665 183.66728 195.01753 223.81223 242.72325 265.8246 282.77708 305.65068 324.56169 351.89888 367.0295 383.98204 406.67344">AEPi Fraternity </tspan></text>
<text xml:space="preserve" transform="matrix(.24238812 0 -0 .23763539 11.9906 201.83063)" font-size="47.52708" font-family="Spectral"><tspan y="2012.1085" x="418.02873">|</tspan></text>
<text xml:space="preserve" transform="matrix(.24238812 0 -0 .23763539 11.9906 201.83063)" font-size="47.52708" font-family="Spectral"><tspan y="2012.1085" x="418.02873">|</tspan></text>
<text xml:space="preserve" transform="matrix(.24238812 0 -0 .2376354 11.9906 201.83063)" font-size="37.625608" font-family="Spectral"><tspan y="2012.2072" x="430.83866"> </tspan></text>
<text xml:space="preserve" transform="matrix(.24238812 0 -0 .2376354 11.9906 201.83063)" font-size="37.625608" font-family="Spectral"><tspan y="2012.2072" x="430.83866"> </tspan></text>
<text xml:space="preserve" transform="matrix(.24238809 0 -0 .2376354 11.9906 201.83063)" font-size="45.54679" font-family="Spectral"><tspan y="2012.1284" x="440.12135 477.74299 505.07106 520.1926 542.87496 565.73947 584.6869 605.183 620.3045 637.2934 659.9757 671.31686 696.732 713.1743 724.51547 760.5885 783.45309 797.70919 820.8014 855.87246 878.96469 897.9121 920.7766 932.1178">University of Delaware  </tspan></text>
<text xml:space="preserve" transform="matrix(.24238809 0 -0 .2376354 11.9906 201.83063)" font-size="45.54679" font-family="Spectral"><tspan y="2012.1284" x="440.12135 477.74299 505.07106 520.1926 542.87496 565.73947 584.6869 605.183 620.3045 637.2934 659.9757 671.31686 696.732 713.1743 724.51547 760.5885 783.45309 797.70919 820.8014 855.87246 878.96469 897.9121 920.7766 932.1178">University of Delaware  </tspan></text>
<text xml:space="preserve" transform="matrix(.24238809 0 -0 .2376354 11.9906 201.83063)" font-size="45.54679" font-family="Spectral"><tspan y="2012.1284" x="943.4424 954.78817 966.13388 977.47958 988.8253 1000.171 1011.5167 1022.8624 1034.2081 1045.5538 1056.8995 1068.2454 1079.5911 1090.9368 1102.2825 1113.6282 1124.9739 1136.3197 1147.6654 1159.0111 1170.3568 1181.7025 1193.0482 1204.394 1215.7398 1227.0855 1238.4312 1249.7769 1261.1226 1272.4684 1283.8141 1295.1598">                                </tspan></text>
<text xml:space="preserve" transform="matrix(.24238809 0 -0 .2376354 11.9906 201.83063)" font-size="45.54679" font-family="Spectral"><tspan y="2012.1284" x="943.4424 954.78817 966.13388 977.47958 988.8253 1000.171 1011.5167 1022.8624 1034.2081 1045.5538 1056.8995 1068.2454 1079.5911 1090.9368 1102.2825 1113.6282 1124.9739 1136.3197 1147.6654 1159.0111 1170.3568 1181.7025 1193.0482 1204.394 1215.7398 1227.0855 1238.4312 1249.7769 1261.1226 1272.4684 1283.8141 1295.1598">                                </tspan></text>
<text xml:space="preserve" transform="matrix(.24238809 0 -0 .2376354 11.9906 201.83063)" font-size="45.54679" font-family="Spectral"><tspan y="2012.1284" x="1306.4968 1317.8425 1329.1882 1340.5339 1351.8796 1363.2255 1374.5712 1385.9169 1397.2626 1408.6083 1419.9541 1431.2998 1442.6455 1453.9912 1465.3369 1476.6826 1488.0285 1499.3742 1510.7199 1522.0656 1533.4113 1544.757 1556.1028 1567.4485 1578.7942 1590.1399 1601.4856 1612.8313 1624.1771 1635.5228 1646.8685 1658.2142 1669.5599 1680.9057 1692.2515 1703.5972 1714.9429 1726.2886 1737.6343 1748.98 1760.3258 1771.6715 1783.0172 1794.3629">                                            </tspan></text>
<text xml:space="preserve" transform="matrix(.24238809 0 -0 .2376354 11.9906 201.83063)" font-size="45.54679" font-family="Spectral"><tspan y="2012.1284" x="1306.4968 1317.8425 1329.1882 1340.5339 1351.8796 1363.2255 1374.5712 1385.9169 1397.2626 1408.6083 1419.9541 1431.2998 1442.6455 1453.9912 1465.3369 1476.6826 1488.0285 1499.3742 1510.7199 1522.0656 1533.4113 1544.757 1556.1028 1567.4485 1578.7942 1590.1399 1601.4856 1612.8313 1624.1771 1635.5228 1646.8685 1658.2142 1669.5599 1680.9057 1692.2515 1703.5972 1714.9429 1726.2886 1737.6343 1748.98 1760.3258 1771.6715 1783.0172 1794.3629">                                            </tspan></text>
<text xml:space="preserve" transform="matrix(.24238809 0 -0 .2376354 11.9906 201.83063)" font-size="45.54679" font-family="Spectral"><tspan y="2012.1284" x="1805.6956 1817.0414 1828.3871 1839.7328">    </tspan></text>
<text xml:space="preserve" transform="matrix(.24238809 0 -0 .2376354 11.9906 201.83063)" font-size="45.54679" font-family="Spectral"><tspan y="2012.1284" x="1805.6956 1817.0414 1828.3871 1839.7328">    </tspan></text>
<text xml:space="preserve" transform="matrix(.24238809 0 -0 .2376354 11.9906 201.83063)" font-size="45.54679" font-family="Spectral"><tspan y="2012.1284" x="1851.078 1879.85 1902.7463 1929.0588 1947.9926 1974.3506 1997.4291 2016.3629 2039.0772 2050.4046 2073.9842 2097.5638 2121.1434 2144.723">February 2023 </tspan></text>
<text xml:space="preserve" transform="matrix(.24238809 0 -0 .2376354 11.9906 201.83063)" font-size="45.54679" font-family="Spectral"><tspan y="2012.1284" x="1851.078 1879.85 1902.7463 1929.0588 1947.9926 1974.3506 1997.4291 2016.3629 2039.0772 2050.4046 2073.9842 2097.5638 2121.1434 2144.723">February 2023 </tspan></text>
<text xml:space="preserve" transform="matrix(.24238809 0 -0 .2376354 11.9906 201.83063)" font-size="45.54679" font-family="Spectral"><tspan y="2012.1284" x="2156.1307">&#x2013;</tspan></text>
<text xml:space="preserve" transform="matrix(.24238809 0 -0 .2376354 11.9906 201.83063)" font-size="45.54679" font-family="Spectral"><tspan y="2012.1284" x="2156.1307">&#x2013;</tspan></text>
<text xml:space="preserve" transform="matrix(.24238809 0 -0 .2376354 11.9906 201.83063)" font-size="45.54679" font-family="Spectral"><tspan y="2012.1284" x="2179.7288"> </tspan></text>
<text xml:space="preserve" transform="matrix(.24238809 0 -0 .2376354 11.9906 201.83063)" font-size="45.54679" font-family="Spectral"><tspan y="2012.1284" x="2179.7288"> </tspan></text>
<text xml:space="preserve" transform="matrix(.24238809 0 -0 .2376354 11.9906 201.83063)" font-size="45.54679" font-family="Spectral"><tspan y="2012.1284" x="2191.074 2220.9346 2239.8636 2262.7552 2283.2786 2306.1702 2333.48">Present</tspan></text>
<text xml:space="preserve" transform="matrix(.24238809 0 -0 .2376354 11.9906 201.83063)" font-size="45.54679" font-family="Spectral"><tspan y="2012.1284" x="2191.074 2220.9346 2239.8636 2262.7552 2283.2786 2306.1702 2333.48">Present</tspan></text>
<text xml:space="preserve" transform="matrix(.24238809 0 -0 .2376354 11.9906 201.83063)" font-size="45.54679" font-family="Spectral"><tspan y="2012.1284" x="2350.4066"> </tspan></text>
<text xml:space="preserve" transform="matrix(.24238809 0 -0 .2376354 11.9906 201.83063)" font-size="45.54679" font-family="Spectral"><tspan y="2012.1284" x="2350.4066"> </tspan></text>
<text xml:space="preserve" transform="matrix(.24 0 -.08156248 .24 11.9906 201.83063)" font-size="46" font-family="Spectral"><tspan y="2064" x="775.43746 810.9586 825.3198 843.499 865.68026 887.6315 903.83267 928.58987 946.76907 958.2323 982.9895 998.6847 1010.1479 1054.0872 1076.2683 1101.8994 1116.2608">Director of Media</tspan></text>
<text xml:space="preserve" transform="matrix(.24 0 -.08156248 .24 11.9906 201.83063)" font-size="46" font-family="Spectral"><tspan y="2064" x="1138.6607"> </tspan></text>
<text xml:space="preserve" transform="matrix(.24 0 -0 .24 11.9906 201.83063)" font-size="42" font-family="Calibri"><tspan y="2129" x="149">&#x25cf;</tspan></text>
<text xml:space="preserve" transform="matrix(.24 0 -0 .24 11.9906 201.83063)" font-size="42" font-family="ArialMT"><tspan y="2129" x="174.1669"> </tspan></text>
<text xml:space="preserve" transform="matrix(.24 0 -0 .24 11.9906 201.83063)" font-size="42" font-family="Spectral"><tspan y="2129" x="224 246.1256 260.8592 277.39878 297.76039 312.49397 332.64558 355.40119 368.4548 388.5224 408.674 419.08164 439.44325 463.71086 487.01246 497.42008 510.4737 546.2913 569.9289 582.18447 602.33609 638.1537 658.3053 682.5729 697.30648 707.71408 727.65567 750.15927 785.97689 809.61447 826.15408 846.30569 870.57327 890.72488 914.99246 933.002 946.0556 966.0392 986.1908 996.5984 1014.608 1037.1116 1057.0532 1070.1068 1090.4684 1102.724 1113.1316 1148.9492 1169.1008 1192.4025 1205.456 1225.8176 1236.2252 1256.1669 1276.5285 1312.3461 1335.9837 1356.3452 1369.3988 1392.1544 1416.422 1434.4317 1444.8392 1459.5729 1482.0764 1492.484 1512.8456 1548.6632 1572.3008 1584.5564 1597.61 1611.8816 1631.8652 1642.2728 1657.0065 1681.274 1701.4257 1711.8333 1726.1049 1742.6444 1763.006 1777.7396 1797.8912 1814.4308 1838.6984 1851.752 1866.4856 1886.4692 1896.8768 1914.8865 1925.2941 1947.7976 1972.0652 1984.3208 1997.3744 2021.642 2041.7936 2052.2012 2075.8389 2092.3785 2112.53 2130.5396 2150.6912 2174.9588 2194.9005 2215.052 2225.4595 2245.821 2270.0887 2293.3902">Strategize and implement comprehensive social media campaigns to amplify the fraternity&#x2019;s online presence and </tspan></text>
<text xml:space="preserve" transform="matrix(.24 0 -0 .24 11.9906 201.83063)" font-size="42" font-family="Spectral"><tspan y="2192" x="224 244.1642 268.4024 291.1706 311.5448 334.313 354.4772 390.3074 410.47163 434.70985 449.45603 459.87626">engagement, </tspan></text>
<text xml:space="preserve" transform="matrix(.24 0 -0 .24 11.9906 201.83063)" font-size="42" font-family="Spectral"><tspan y="2192" x="470.286 486.82563 506.97724 524.9868 548.37246 560.62808 575.36166 588.4152 612.68289 635.4385 645.84609 658.89968 683.16726 693.5748 713.93649 724.34408 745.16769 765.9913 797.2309 807.6385 820.6921 844.9597 864.9013 881.4409 901.5925 921.95419 939.96377 960.11538 970.52297 983.57656 1007.8441 1018.2517 1032.5233 1055.027 1067.2826 1079.5382 1102.0419 1133.4075 1153.5591 1170.0986 1188.1083 1198.5159 1218.8775 1243.145 1266.4467 1276.8543 1297.2158 1307.6234 1325.633 1349.0187 1365.5582 1388.3139 1408.4655 1418.873 1431.9266 1456.1942 1466.6018 1479.6554 1503.923 1518.6566 1538.8082 1555.3478 1575.7094 1595.651 1610.3847 1623.4382 1645.9419">resulting in a 25% increase in followers and a surge in interaction</tspan></text>
<text xml:space="preserve" transform="matrix(.24 0 -0 .24 11.9906 201.83063)" font-size="42" font-family="Spectral"><tspan y="2192" x="1670.216"> </tspan></text>
<text xml:space="preserve" transform="matrix(.24 0 -0 .24 11.9906 201.83063)" font-size="42" font-family="Calibri"><tspan y="2255" x="149">&#x25cf;</tspan></text>
<text xml:space="preserve" transform="matrix(.24 0 -0 .24 11.9906 201.83063)" font-size="42" font-family="ArialMT"><tspan y="2255" x="174.1669"> </tspan></text>
<text xml:space="preserve" transform="matrix(.24 0 -0 .24 11.9906 201.83063)" font-size="42" font-family="Spectral"><tspan y="2255" x="224 246.1256 269.5112 293.1488 313.3004 329.84 349.8236 362.87724 380.8868 401.03843 411.44606 431.80766 456.07527 479.37687 489.7845 525.6021 545.9637 570.23129 590.59286 613.34848 633.50009 643.90768 664.2692 674.6768 694.6184 717.122 752.93966 788.75729 801.81088 816.54446 831.278 851.4296 871.58126 881.98886 904.49246 918.76406">Supervise and manage a committee of </tspan></text>
<text xml:space="preserve" transform="matrix(.24 0 -0 .24 11.9906 201.83063)" font-size="42" font-family="Spectral"><tspan y="2255" x="929.3162">4</tspan></text>
<text xml:space="preserve" transform="matrix(.24 0 -0 .24 11.9906 201.83063)" font-size="42" font-family="Spectral"><tspan y="2255" x="950.1495"> </tspan></text>
<text xml:space="preserve" transform="matrix(.24 0 -0 .24 11.9906 201.83063)" font-size="42" font-family="Spectral"><tspan y="2255" x="960.5662 996.40066 1016.56906 1052.4035 1075.7218 1095.8901 1112.4465">members</tspan></text>
<text xml:space="preserve" transform="matrix(.24 0 -0 .24 11.9906 201.83063)" font-size="42" font-family="Spectral"><tspan y="2255" x="1130.437"> </tspan></text>
<text xml:space="preserve" transform="matrix(.24 0 -0 .24 11.9906 201.83063)" font-size="42" font-family="Spectral"><tspan y="2255" x="1140.854 1164.185">by</tspan></text>
<text xml:space="preserve" transform="matrix(.24 0 -0 .24 11.9906 201.83063)" font-size="42" font-family="Spectral"><tspan y="2255" x="1184.186"> </tspan></text>
<text xml:space="preserve" transform="matrix(.24 0 -0 .24 11.9906 201.83063)" font-size="42" font-family="Spectral"><tspan y="2255" x="1194.602 1208.8527 1229.2352 1249.1979 1262.2305 1274.4651 1287.4977 1302.2523 1322.6349 1337.3895 1350.4221 1374.6687 1397.4033 1407.8319 1439.2185 1459.3911 1479.5637 1502.8024 1515.037 1535.0416 1545.4702 1581.3088 1601.4815 1621.654 1636.4087 1649.4413 1673.6879 1696.4225">facilitating weekly meetings</tspan></text>
<text xml:space="preserve" transform="matrix(.24 0 -0 .24 11.9906 201.83063)" font-size="42" font-family="Spectral"><tspan y="2255" x="1714.421"> </tspan></text>
<text xml:space="preserve" transform="matrix(.24 0 -0 .24 11.9906 201.83063)" font-size="42" font-family="Calibri"><tspan y="2319" x="149">&#x25cf;</tspan></text>
<text xml:space="preserve" transform="matrix(.24 0 -0 .24 11.9906 201.83063)" font-size="42" font-family="ArialMT"><tspan y="2319" x="174.1669"> </tspan></text>
<text xml:space="preserve" transform="matrix(.24 0 -0 .24 11.9906 201.83063)" font-size="42" font-family="Spectral"><tspan y="2319" x="224 254.2484 276.76884 289.04124 301.31364 321.69206 345.01045 367.53086 384.08726 404.46568 419.21607 439.3845 449.8089 481.19129 494.2197 508.9701 533.21249 543.6369 558.38729 582.62966 602.79806 613.2225 627.4689 644.02529 664.4036 679.154 699.3224 715.8788 740.12118 753.14956 767.8999 787.90029 798.3247 816.3091 826.7335 839.0059 859.1743 879.5527 902.82907 922.99746 939.55386 957.5382 981.7806 994.80899 1018.4213 1028.8457 1043.5961 1063.7644 1084.1428 1119.9772 1130.4015 1145.1519 1167.6723 1178.0966 1201.709 1218.2654 1240.7858 1276.6201 1299.1405 1313.8909 1334.0592 1344.4835 1364.6519 1384.6522 1404.8206 1429.063 1443.8134 1461.7977 1472.222 1482.6464 1499.2028 1519.3711 1539.3295 1555.8859 1579.2462 1592.2745 1607.0249 1617.4492 1641.6917 1661.86 1693.2424 1703.6668 1739.5011 1759.6694 1795.5038 1818.8222 1838.9905 1855.5469 1873.5313 1883.9556 1894.3799 1914.7583 1939.0007 1962.2771">Collaborate with the fraternity's leadership team to promote events, recruit new members, and </tspan></text>
<text xml:space="preserve" transform="matrix(.24 0 -0 .24 11.9906 201.83063)" font-size="42" font-family="Spectral"><tspan y="2319" x="1972.455 1990.4562 2005.2234 2021.7546 2041.8978 2066.157 2088.9044 2103.6715 2127.9307 2148.074 2172.3333 2182.7325 2203.0858 2215.333 2238.7103 2274.5616 2298.8209 2311.866">strengthen alumni </tspan></text>
<text xml:space="preserve" transform="matrix(.24 0 -0 .24 11.9906 201.83063)" font-size="42" font-family="Spectral"><tspan y="2382" x="224 243.9584 266.43684 290.67924 314.92164 335.09004 355.04844 369.79884 382.8272 405.3056 429.548 447.5324 457.95683 472.7072 496.94963 513.506 535.9844 559.3448 582.0752 606.3176 616.742 634.7264 657.2048 677.16317 690.1915 710.56997 722.84237 733.2667 769.10116 789.26956 812.54598 825.57437 845.95278 856.37716 876.3355 900.57797 920.95639 945.1988 969.4412 989.6096 1001.882">connections through social media channels</tspan></text>
<text xml:space="preserve" transform="matrix(.24 0 -0 .24 11.9906 201.83063)" font-size="42" font-family="Spectral"><tspan y="2382" x="1020.02"> </tspan></text>
</svg>
